<svg width="67" height="43" viewBox="0 0 67 43" fill="none" xmlns="http://www.w3.org/2000/svg">
<path d="M13.4699 43H4.18281L4.24141 36.1445H13.4699C15.7746 36.1445 17.718 35.627 19.3 34.5918C20.882 33.5371 22.0734 32.0039 22.8742 29.9922C23.6945 27.9805 24.1047 25.5488 24.1047 22.6973V20.6172C24.1047 18.4297 23.8703 16.5059 23.4016 14.8457C22.9523 13.1855 22.2785 11.7891 21.3801 10.6562C20.4816 9.52344 19.3781 8.67383 18.0695 8.10742C16.7609 7.52148 15.257 7.22852 13.5578 7.22852H4.00703V0.34375H13.5578C16.4094 0.34375 19.0168 0.832031 21.3801 1.80859C23.7629 2.76563 25.8234 4.14258 27.5617 5.93945C29.3 7.73633 30.6379 9.88477 31.5754 12.3848C32.5324 14.8652 33.0109 17.6289 33.0109 20.6758V22.6973C33.0109 25.7246 32.5324 28.4883 31.5754 30.9883C30.6379 33.4883 29.3 35.6367 27.5617 37.4336C25.843 39.2109 23.7824 40.5879 21.3801 41.5645C18.9973 42.5215 16.3605 43 13.4699 43ZM9.16328 0.34375V43H0.374218V0.34375H9.16328ZM66.618 19.2402V26.5938H37.3797V19.2402H66.618ZM56.0125 7.66797V38.7227H48.0145V7.66797H56.0125Z" fill="white"/>
</svg>
