<svg width="374" height="323" viewBox="0 0 374 323" fill="none" xmlns="http://www.w3.org/2000/svg">
<path fill-rule="evenodd" clip-rule="evenodd" d="M267 0H107C96 0 87 9 87 20V140C87 151 96 160 107 160H267C278 160 287 151 287 140V20C287 9 278 0 267 0ZM267 140H107V20H267V140ZM177 107.2L207 70L247 120H127L157 80L177 107.2Z" fill="white"/>
<path d="M8.70361 204.477H22.1187C25.1616 204.477 27.7314 204.94 29.8281 205.868C31.9434 206.796 33.5483 208.169 34.6431 209.987C35.7563 211.787 36.313 214.004 36.313 216.639C36.313 218.495 35.9326 220.192 35.1719 221.732C34.4297 223.254 33.3535 224.553 31.9434 225.629C30.5518 226.687 28.8818 227.475 26.9336 227.995L25.4307 228.579H12.8228L12.7671 224.209H22.2856C24.2153 224.209 25.8203 223.875 27.1006 223.208C28.3809 222.521 29.3457 221.603 29.9951 220.452C30.6445 219.302 30.9692 218.031 30.9692 216.639C30.9692 215.081 30.6631 213.717 30.0508 212.548C29.4385 211.379 28.4736 210.479 27.1562 209.848C25.8574 209.199 24.1782 208.874 22.1187 208.874H14.0752V245H8.70361V204.477ZM32.3887 245L22.5361 226.631L28.1304 226.603L38.1221 244.666V245H32.3887ZM60.5552 239.851V224.349C60.5552 223.161 60.314 222.131 59.8315 221.259C59.3677 220.369 58.6626 219.682 57.7163 219.2C56.77 218.717 55.6011 218.476 54.2095 218.476C52.9106 218.476 51.7695 218.699 50.7861 219.144C49.8213 219.589 49.0605 220.174 48.5039 220.897C47.9658 221.621 47.6968 222.4 47.6968 223.235H42.5479C42.5479 222.159 42.8262 221.092 43.3828 220.035C43.9395 218.977 44.7373 218.021 45.7764 217.168C46.834 216.296 48.0957 215.609 49.5615 215.108C51.0459 214.589 52.6973 214.329 54.5156 214.329C56.7051 214.329 58.6348 214.7 60.3047 215.442C61.9932 216.185 63.3105 217.307 64.2568 218.81C65.2217 220.294 65.7041 222.159 65.7041 224.404V238.432C65.7041 239.434 65.7876 240.5 65.9546 241.632C66.1401 242.764 66.4092 243.738 66.7617 244.555V245H61.3901C61.1304 244.406 60.9263 243.618 60.7778 242.634C60.6294 241.632 60.5552 240.705 60.5552 239.851ZM61.4458 226.742L61.5015 230.36H56.2969C54.8311 230.36 53.5229 230.481 52.3726 230.722C51.2222 230.945 50.2573 231.288 49.478 231.752C48.6987 232.216 48.105 232.8 47.6968 233.505C47.2886 234.192 47.0845 234.999 47.0845 235.927C47.0845 236.873 47.2979 237.736 47.7246 238.515C48.1514 239.294 48.7915 239.916 49.645 240.38C50.5171 240.825 51.584 241.048 52.8457 241.048C54.4229 241.048 55.8145 240.714 57.0205 240.046C58.2266 239.378 59.1821 238.562 59.8872 237.597C60.6108 236.632 61.0005 235.695 61.0562 234.786L63.2549 237.263C63.125 238.042 62.7725 238.905 62.1973 239.851C61.6221 240.797 60.8521 241.707 59.8872 242.579C58.9409 243.432 57.8091 244.146 56.4917 244.722C55.1929 245.278 53.7271 245.557 52.0942 245.557C50.0532 245.557 48.2627 245.158 46.7227 244.36C45.2012 243.562 44.0137 242.495 43.1602 241.159C42.3252 239.805 41.9077 238.292 41.9077 236.623C41.9077 235.008 42.2231 233.589 42.854 232.364C43.4849 231.121 44.394 230.091 45.5815 229.275C46.769 228.44 48.1978 227.809 49.8677 227.382C51.5376 226.956 53.4023 226.742 55.4619 226.742H61.4458ZM92.5347 239.155V202.25H97.7114V245H92.98L92.5347 239.155ZM72.2729 230.277V229.692C72.2729 227.392 72.5513 225.304 73.1079 223.43C73.6831 221.538 74.4902 219.914 75.5293 218.56C76.5869 217.205 77.8394 216.166 79.2866 215.442C80.7524 214.7 82.3853 214.329 84.1851 214.329C86.0776 214.329 87.729 214.663 89.1392 215.331C90.5679 215.98 91.7739 216.936 92.7573 218.198C93.7593 219.441 94.5479 220.944 95.123 222.707C95.6982 224.469 96.0972 226.464 96.3198 228.69V231.251C96.1157 233.459 95.7168 235.444 95.123 237.207C94.5479 238.97 93.7593 240.473 92.7573 241.716C91.7739 242.959 90.5679 243.915 89.1392 244.583C87.7104 245.232 86.0405 245.557 84.1294 245.557C82.3667 245.557 80.7524 245.176 79.2866 244.416C77.8394 243.655 76.5869 242.588 75.5293 241.215C74.4902 239.842 73.6831 238.228 73.1079 236.372C72.5513 234.498 72.2729 232.466 72.2729 230.277ZM77.4497 229.692V230.277C77.4497 231.78 77.5981 233.19 77.895 234.507C78.2104 235.825 78.6929 236.984 79.3423 237.986C79.9917 238.988 80.8174 239.777 81.8193 240.352C82.8213 240.909 84.0181 241.187 85.4097 241.187C87.1167 241.187 88.5176 240.825 89.6123 240.102C90.7256 239.378 91.6162 238.422 92.2842 237.235C92.9521 236.047 93.4717 234.758 93.8428 233.366V226.659C93.6201 225.638 93.2954 224.655 92.8687 223.708C92.4604 222.744 91.9224 221.89 91.2544 221.148C90.605 220.387 89.7979 219.784 88.833 219.339C87.8867 218.894 86.7642 218.671 85.4653 218.671C84.0552 218.671 82.8398 218.968 81.8193 219.562C80.8174 220.137 79.9917 220.935 79.3423 221.955C78.6929 222.957 78.2104 224.126 77.895 225.462C77.5981 226.779 77.4497 228.189 77.4497 229.692ZM111.071 214.886V245H105.895V214.886H111.071ZM105.505 206.898C105.505 206.063 105.755 205.358 106.256 204.783C106.776 204.208 107.537 203.92 108.539 203.92C109.522 203.92 110.273 204.208 110.793 204.783C111.331 205.358 111.6 206.063 111.6 206.898C111.6 207.696 111.331 208.382 110.793 208.958C110.273 209.514 109.522 209.792 108.539 209.792C107.537 209.792 106.776 209.514 106.256 208.958C105.755 208.382 105.505 207.696 105.505 206.898ZM117.724 230.277V229.637C117.724 227.466 118.039 225.453 118.67 223.597C119.301 221.723 120.21 220.1 121.397 218.727C122.585 217.335 124.023 216.259 125.711 215.498C127.4 214.719 129.292 214.329 131.389 214.329C133.504 214.329 135.406 214.719 137.095 215.498C138.802 216.259 140.249 217.335 141.437 218.727C142.643 220.1 143.561 221.723 144.192 223.597C144.823 225.453 145.138 227.466 145.138 229.637V230.277C145.138 232.448 144.823 234.461 144.192 236.316C143.561 238.172 142.643 239.795 141.437 241.187C140.249 242.56 138.811 243.636 137.123 244.416C135.453 245.176 133.56 245.557 131.445 245.557C129.33 245.557 127.428 245.176 125.739 244.416C124.051 243.636 122.604 242.56 121.397 241.187C120.21 239.795 119.301 238.172 118.67 236.316C118.039 234.461 117.724 232.448 117.724 230.277ZM122.873 229.637V230.277C122.873 231.78 123.049 233.199 123.401 234.535C123.754 235.853 124.283 237.021 124.988 238.042C125.711 239.062 126.611 239.87 127.688 240.463C128.764 241.039 130.016 241.326 131.445 241.326C132.855 241.326 134.089 241.039 135.146 240.463C136.223 239.87 137.113 239.062 137.818 238.042C138.523 237.021 139.052 235.853 139.405 234.535C139.776 233.199 139.961 231.78 139.961 230.277V229.637C139.961 228.152 139.776 226.751 139.405 225.434C139.052 224.098 138.514 222.92 137.791 221.899C137.085 220.86 136.195 220.044 135.119 219.45C134.061 218.856 132.818 218.56 131.389 218.56C129.979 218.56 128.736 218.856 127.66 219.45C126.602 220.044 125.711 220.86 124.988 221.899C124.283 222.92 123.754 224.098 123.401 225.434C123.049 226.751 122.873 228.152 122.873 229.637ZM170.327 239.155V202.25H175.503V245H170.772L170.327 239.155ZM150.065 230.277V229.692C150.065 227.392 150.343 225.304 150.9 223.43C151.475 221.538 152.282 219.914 153.321 218.56C154.379 217.205 155.631 216.166 157.079 215.442C158.544 214.7 160.177 214.329 161.977 214.329C163.87 214.329 165.521 214.663 166.931 215.331C168.36 215.98 169.566 216.936 170.549 218.198C171.551 219.441 172.34 220.944 172.915 222.707C173.49 224.469 173.889 226.464 174.112 228.69V231.251C173.908 233.459 173.509 235.444 172.915 237.207C172.34 238.97 171.551 240.473 170.549 241.716C169.566 242.959 168.36 243.915 166.931 244.583C165.502 245.232 163.833 245.557 161.921 245.557C160.159 245.557 158.544 245.176 157.079 244.416C155.631 243.655 154.379 242.588 153.321 241.215C152.282 239.842 151.475 238.228 150.9 236.372C150.343 234.498 150.065 232.466 150.065 230.277ZM155.242 229.692V230.277C155.242 231.78 155.39 233.19 155.687 234.507C156.002 235.825 156.485 236.984 157.134 237.986C157.784 238.988 158.609 239.777 159.611 240.352C160.613 240.909 161.81 241.187 163.202 241.187C164.909 241.187 166.31 240.825 167.404 240.102C168.518 239.378 169.408 238.422 170.076 237.235C170.744 236.047 171.264 234.758 171.635 233.366V226.659C171.412 225.638 171.087 224.655 170.661 223.708C170.252 222.744 169.714 221.89 169.046 221.148C168.397 220.387 167.59 219.784 166.625 219.339C165.679 218.894 164.556 218.671 163.257 218.671C161.847 218.671 160.632 218.968 159.611 219.562C158.609 220.137 157.784 220.935 157.134 221.955C156.485 222.957 156.002 224.126 155.687 225.462C155.39 226.779 155.242 228.189 155.242 229.692ZM188.863 214.886V245H183.687V214.886H188.863ZM183.297 206.898C183.297 206.063 183.547 205.358 184.048 204.783C184.568 204.208 185.329 203.92 186.331 203.92C187.314 203.92 188.065 204.208 188.585 204.783C189.123 205.358 189.392 206.063 189.392 206.898C189.392 207.696 189.123 208.382 188.585 208.958C188.065 209.514 187.314 209.792 186.331 209.792C185.329 209.792 184.568 209.514 184.048 208.958C183.547 208.382 183.297 207.696 183.297 206.898ZM204.561 245H199.412V211.713C199.412 209.542 199.802 207.714 200.581 206.23C201.379 204.727 202.52 203.595 204.004 202.834C205.489 202.055 207.251 201.666 209.292 201.666C209.886 201.666 210.48 201.703 211.074 201.777C211.686 201.851 212.28 201.962 212.855 202.111L212.577 206.313C212.187 206.221 211.742 206.156 211.241 206.119C210.758 206.082 210.276 206.063 209.793 206.063C208.699 206.063 207.752 206.286 206.955 206.731C206.175 207.158 205.582 207.789 205.173 208.624C204.765 209.458 204.561 210.488 204.561 211.713V245ZM210.962 214.886V218.838H194.653V214.886H210.962ZM234.871 238.042V214.886H240.047V245H235.121L234.871 238.042ZM235.845 231.696L237.988 231.641C237.988 233.645 237.774 235.5 237.348 237.207C236.939 238.896 236.271 240.361 235.344 241.604C234.416 242.848 233.201 243.822 231.698 244.527C230.195 245.213 228.367 245.557 226.215 245.557C224.749 245.557 223.404 245.343 222.179 244.917C220.973 244.49 219.934 243.831 219.062 242.94C218.19 242.05 217.513 240.89 217.03 239.461C216.566 238.033 216.334 236.316 216.334 234.312V214.886H221.483V234.368C221.483 235.723 221.632 236.845 221.929 237.736C222.244 238.608 222.662 239.304 223.181 239.823C223.719 240.324 224.313 240.677 224.962 240.881C225.63 241.085 226.317 241.187 227.022 241.187C229.211 241.187 230.946 240.77 232.227 239.935C233.507 239.081 234.425 237.94 234.982 236.511C235.557 235.064 235.845 233.459 235.845 231.696ZM265.18 237.012C265.18 236.27 265.013 235.583 264.679 234.953C264.364 234.303 263.705 233.719 262.703 233.199C261.72 232.661 260.235 232.197 258.25 231.808C256.58 231.455 255.068 231.038 253.713 230.555C252.377 230.073 251.236 229.488 250.29 228.802C249.362 228.115 248.648 227.308 248.147 226.38C247.646 225.453 247.396 224.367 247.396 223.124C247.396 221.937 247.655 220.814 248.175 219.756C248.713 218.699 249.464 217.762 250.429 216.945C251.413 216.129 252.591 215.489 253.964 215.025C255.337 214.561 256.868 214.329 258.556 214.329C260.968 214.329 263.028 214.756 264.735 215.609C266.442 216.463 267.75 217.604 268.659 219.033C269.568 220.443 270.023 222.011 270.023 223.736H264.874C264.874 222.901 264.624 222.094 264.123 221.315C263.64 220.517 262.926 219.858 261.979 219.339C261.052 218.819 259.911 218.56 258.556 218.56C257.127 218.56 255.968 218.782 255.077 219.228C254.205 219.654 253.565 220.202 253.157 220.87C252.767 221.538 252.572 222.243 252.572 222.985C252.572 223.542 252.665 224.042 252.851 224.488C253.055 224.915 253.407 225.313 253.908 225.685C254.409 226.037 255.114 226.371 256.023 226.687C256.933 227.002 258.092 227.317 259.502 227.633C261.97 228.189 264.002 228.857 265.598 229.637C267.193 230.416 268.381 231.372 269.16 232.503C269.939 233.635 270.329 235.008 270.329 236.623C270.329 237.94 270.051 239.146 269.494 240.241C268.956 241.335 268.167 242.282 267.128 243.08C266.108 243.859 264.883 244.471 263.455 244.917C262.044 245.343 260.458 245.557 258.695 245.557C256.042 245.557 253.797 245.083 251.96 244.137C250.123 243.191 248.731 241.966 247.785 240.463C246.839 238.96 246.366 237.374 246.366 235.704H251.542C251.617 237.114 252.025 238.237 252.767 239.072C253.509 239.888 254.418 240.473 255.495 240.825C256.571 241.159 257.638 241.326 258.695 241.326C260.105 241.326 261.284 241.141 262.23 240.77C263.195 240.398 263.928 239.888 264.429 239.239C264.93 238.589 265.18 237.847 265.18 237.012ZM275.479 230.277V229.637C275.479 227.466 275.794 225.453 276.425 223.597C277.056 221.723 277.965 220.1 279.152 218.727C280.34 217.335 281.778 216.259 283.466 215.498C285.155 214.719 287.047 214.329 289.144 214.329C291.259 214.329 293.161 214.719 294.85 215.498C296.557 216.259 298.004 217.335 299.191 218.727C300.397 220.1 301.316 221.723 301.947 223.597C302.578 225.453 302.893 227.466 302.893 229.637V230.277C302.893 232.448 302.578 234.461 301.947 236.316C301.316 238.172 300.397 239.795 299.191 241.187C298.004 242.56 296.566 243.636 294.877 244.416C293.208 245.176 291.315 245.557 289.2 245.557C287.084 245.557 285.183 245.176 283.494 244.416C281.806 243.636 280.358 242.56 279.152 241.187C277.965 239.795 277.056 238.172 276.425 236.316C275.794 234.461 275.479 232.448 275.479 230.277ZM280.627 229.637V230.277C280.627 231.78 280.804 233.199 281.156 234.535C281.509 235.853 282.038 237.021 282.743 238.042C283.466 239.062 284.366 239.87 285.442 240.463C286.519 241.039 287.771 241.326 289.2 241.326C290.61 241.326 291.844 241.039 292.901 240.463C293.978 239.87 294.868 239.062 295.573 238.042C296.278 237.021 296.807 235.853 297.16 234.535C297.531 233.199 297.716 231.78 297.716 230.277V229.637C297.716 228.152 297.531 226.751 297.16 225.434C296.807 224.098 296.269 222.92 295.545 221.899C294.84 220.86 293.95 220.044 292.874 219.45C291.816 218.856 290.573 218.56 289.144 218.56C287.734 218.56 286.491 218.856 285.415 219.45C284.357 220.044 283.466 220.86 282.743 221.899C282.038 222.92 281.509 224.098 281.156 225.434C280.804 226.751 280.627 228.152 280.627 229.637ZM314.249 219.617V245H309.1V214.886H314.11L314.249 219.617ZM323.656 214.719L323.628 219.506C323.202 219.413 322.793 219.357 322.404 219.339C322.033 219.302 321.606 219.283 321.124 219.283C319.936 219.283 318.888 219.469 317.979 219.84C317.069 220.211 316.299 220.73 315.668 221.398C315.038 222.066 314.537 222.864 314.166 223.792C313.813 224.701 313.581 225.703 313.47 226.798L312.022 227.633C312.022 225.814 312.199 224.107 312.551 222.512C312.922 220.916 313.488 219.506 314.249 218.281C315.01 217.038 315.975 216.073 317.144 215.387C318.331 214.682 319.741 214.329 321.374 214.329C321.745 214.329 322.172 214.375 322.654 214.468C323.137 214.542 323.471 214.626 323.656 214.719ZM358.419 204.254V245H353.271V210.683L342.889 214.468V209.82L357.612 204.254H358.419Z" fill="white"/>
<path d="M17.002 305.531C17.002 304.934 16.9082 304.406 16.7207 303.949C16.5449 303.48 16.2285 303.059 15.7715 302.684C15.3262 302.309 14.7051 301.951 13.9082 301.611C13.123 301.271 12.127 300.926 10.9199 300.574C9.6543 300.199 8.51172 299.783 7.49219 299.326C6.47266 298.857 5.59961 298.324 4.87305 297.727C4.14648 297.129 3.58984 296.443 3.20312 295.67C2.81641 294.896 2.62305 294.012 2.62305 293.016C2.62305 292.02 2.82812 291.1 3.23828 290.256C3.64844 289.412 4.23438 288.68 4.99609 288.059C5.76953 287.426 6.68945 286.934 7.75586 286.582C8.82227 286.23 10.0117 286.055 11.3242 286.055C13.2461 286.055 14.875 286.424 16.2109 287.162C17.5586 287.889 18.584 288.844 19.2871 290.027C19.9902 291.199 20.3418 292.453 20.3418 293.789H16.9668C16.9668 292.828 16.7617 291.979 16.3516 291.24C15.9414 290.49 15.3203 289.904 14.4883 289.482C13.6562 289.049 12.6016 288.832 11.3242 288.832C10.1172 288.832 9.12109 289.014 8.33594 289.377C7.55078 289.74 6.96484 290.232 6.57812 290.854C6.20312 291.475 6.01562 292.184 6.01562 292.98C6.01562 293.52 6.12695 294.012 6.34961 294.457C6.58398 294.891 6.94141 295.295 7.42188 295.67C7.91406 296.045 8.53516 296.391 9.28516 296.707C10.0469 297.023 10.9551 297.328 12.0098 297.621C13.4629 298.031 14.7168 298.488 15.7715 298.992C16.8262 299.496 17.6934 300.064 18.373 300.697C19.0645 301.318 19.5742 302.027 19.9023 302.824C20.2422 303.609 20.4121 304.5 20.4121 305.496C20.4121 306.539 20.2012 307.482 19.7793 308.326C19.3574 309.17 18.7539 309.891 17.9688 310.488C17.1836 311.086 16.2402 311.549 15.1387 311.877C14.0488 312.193 12.8301 312.352 11.4824 312.352C10.2988 312.352 9.13281 312.188 7.98438 311.859C6.84766 311.531 5.81055 311.039 4.87305 310.383C3.94727 309.727 3.20312 308.918 2.64062 307.957C2.08984 306.984 1.81445 305.859 1.81445 304.582H5.18945C5.18945 305.461 5.35938 306.217 5.69922 306.85C6.03906 307.471 6.50195 307.986 7.08789 308.396C7.68555 308.807 8.35938 309.111 9.10938 309.311C9.87109 309.498 10.6621 309.592 11.4824 309.592C12.666 309.592 13.668 309.428 14.4883 309.1C15.3086 308.771 15.9297 308.303 16.3516 307.693C16.7852 307.084 17.002 306.363 17.002 305.531ZM27.7773 285V312H24.5078V285H27.7773ZM32.1367 302.701V302.297C32.1367 300.926 32.3359 299.654 32.7344 298.482C33.1328 297.299 33.707 296.273 34.457 295.406C35.207 294.527 36.1152 293.848 37.1816 293.367C38.248 292.875 39.4434 292.629 40.7676 292.629C42.1035 292.629 43.3047 292.875 44.3711 293.367C45.4492 293.848 46.3633 294.527 47.1133 295.406C47.875 296.273 48.4551 297.299 48.8535 298.482C49.252 299.654 49.4512 300.926 49.4512 302.297V302.701C49.4512 304.072 49.252 305.344 48.8535 306.516C48.4551 307.688 47.875 308.713 47.1133 309.592C46.3633 310.459 45.4551 311.139 44.3887 311.631C43.334 312.111 42.1387 312.352 40.8027 312.352C39.4668 312.352 38.2656 312.111 37.1992 311.631C36.1328 311.139 35.2188 310.459 34.457 309.592C33.707 308.713 33.1328 307.688 32.7344 306.516C32.3359 305.344 32.1367 304.072 32.1367 302.701ZM35.3887 302.297V302.701C35.3887 303.65 35.5 304.547 35.7227 305.391C35.9453 306.223 36.2793 306.961 36.7246 307.605C37.1816 308.25 37.75 308.76 38.4297 309.135C39.1094 309.498 39.9004 309.68 40.8027 309.68C41.6934 309.68 42.4727 309.498 43.1406 309.135C43.8203 308.76 44.3828 308.25 44.8281 307.605C45.2734 306.961 45.6074 306.223 45.8301 305.391C46.0645 304.547 46.1816 303.65 46.1816 302.701V302.297C46.1816 301.359 46.0645 300.475 45.8301 299.643C45.6074 298.799 45.2676 298.055 44.8105 297.41C44.3652 296.754 43.8027 296.238 43.123 295.863C42.4551 295.488 41.6699 295.301 40.7676 295.301C39.877 295.301 39.0918 295.488 38.4121 295.863C37.7441 296.238 37.1816 296.754 36.7246 297.41C36.2793 298.055 35.9453 298.799 35.7227 299.643C35.5 300.475 35.3887 301.359 35.3887 302.297ZM65.8516 292.98H68.8047V311.596C68.8047 313.271 68.4648 314.701 67.7852 315.885C67.1055 317.068 66.1562 317.965 64.9375 318.574C63.7305 319.195 62.3359 319.506 60.7539 319.506C60.0977 319.506 59.3242 319.4 58.4336 319.189C57.5547 318.99 56.6875 318.645 55.832 318.152C54.9883 317.672 54.2793 317.021 53.7051 316.201L55.4102 314.268C56.207 315.229 57.0391 315.896 57.9062 316.271C58.7852 316.646 59.6523 316.834 60.5078 316.834C61.5391 316.834 62.4297 316.641 63.1797 316.254C63.9297 315.867 64.5098 315.293 64.9199 314.531C65.3418 313.781 65.5527 312.855 65.5527 311.754V297.164L65.8516 292.98ZM52.7559 302.701V302.332C52.7559 300.879 52.9258 299.561 53.2656 298.377C53.6172 297.182 54.1152 296.156 54.7598 295.301C55.416 294.445 56.207 293.789 57.1328 293.332C58.0586 292.863 59.1016 292.629 60.2617 292.629C61.457 292.629 62.5 292.84 63.3906 293.262C64.293 293.672 65.0547 294.275 65.6758 295.072C66.3086 295.857 66.8066 296.807 67.1699 297.92C67.5332 299.033 67.7852 300.293 67.9258 301.699V303.316C67.7969 304.711 67.5449 305.965 67.1699 307.078C66.8066 308.191 66.3086 309.141 65.6758 309.926C65.0547 310.711 64.293 311.314 63.3906 311.736C62.4883 312.146 61.4336 312.352 60.2266 312.352C59.0898 312.352 58.0586 312.111 57.1328 311.631C56.2188 311.15 55.4336 310.477 54.7773 309.609C54.1211 308.742 53.6172 307.723 53.2656 306.551C52.9258 305.367 52.7559 304.084 52.7559 302.701ZM56.0078 302.332V302.701C56.0078 303.65 56.1016 304.541 56.2891 305.373C56.4883 306.205 56.7871 306.938 57.1855 307.57C57.5957 308.203 58.1172 308.701 58.75 309.064C59.3828 309.416 60.1387 309.592 61.0176 309.592C62.0957 309.592 62.9863 309.363 63.6895 308.906C64.3926 308.449 64.9492 307.846 65.3594 307.096C65.7812 306.346 66.1094 305.531 66.3438 304.652V300.416C66.2148 299.771 66.0156 299.15 65.7461 298.553C65.4883 297.943 65.1484 297.404 64.7266 296.936C64.3164 296.455 63.8066 296.074 63.1973 295.793C62.5879 295.512 61.873 295.371 61.0527 295.371C60.1621 295.371 59.3945 295.559 58.75 295.934C58.1172 296.297 57.5957 296.801 57.1855 297.445C56.7871 298.078 56.4883 298.816 56.2891 299.66C56.1016 300.492 56.0078 301.383 56.0078 302.332ZM84.959 308.748V298.957C84.959 298.207 84.8066 297.557 84.502 297.006C84.209 296.443 83.7637 296.01 83.166 295.705C82.5684 295.4 81.8301 295.248 80.9512 295.248C80.1309 295.248 79.4102 295.389 78.7891 295.67C78.1797 295.951 77.6992 296.32 77.3477 296.777C77.0078 297.234 76.8379 297.727 76.8379 298.254H73.5859C73.5859 297.574 73.7617 296.9 74.1133 296.232C74.4648 295.564 74.9688 294.961 75.625 294.422C76.293 293.871 77.0898 293.438 78.0156 293.121C78.9531 292.793 79.9961 292.629 81.1445 292.629C82.5273 292.629 83.7461 292.863 84.8008 293.332C85.8672 293.801 86.6992 294.51 87.2969 295.459C87.9062 296.396 88.2109 297.574 88.2109 298.992V307.852C88.2109 308.484 88.2637 309.158 88.3691 309.873C88.4863 310.588 88.6562 311.203 88.8789 311.719V312H85.4863C85.3223 311.625 85.1934 311.127 85.0996 310.506C85.0059 309.873 84.959 309.287 84.959 308.748ZM85.5215 300.469L85.5566 302.754H82.2695C81.3438 302.754 80.5176 302.83 79.791 302.982C79.0645 303.123 78.4551 303.34 77.9629 303.633C77.4707 303.926 77.0957 304.295 76.8379 304.74C76.5801 305.174 76.4512 305.684 76.4512 306.27C76.4512 306.867 76.5859 307.412 76.8555 307.904C77.125 308.396 77.5293 308.789 78.0684 309.082C78.6191 309.363 79.293 309.504 80.0898 309.504C81.0859 309.504 81.9648 309.293 82.7266 308.871C83.4883 308.449 84.0918 307.934 84.5371 307.324C84.9941 306.715 85.2402 306.123 85.2754 305.549L86.6641 307.113C86.582 307.605 86.3594 308.15 85.9961 308.748C85.6328 309.346 85.1465 309.92 84.5371 310.471C83.9395 311.01 83.2246 311.461 82.3926 311.824C81.5723 312.176 80.6465 312.352 79.6152 312.352C78.3262 312.352 77.1953 312.1 76.2227 311.596C75.2617 311.092 74.5117 310.418 73.9727 309.574C73.4453 308.719 73.1816 307.764 73.1816 306.709C73.1816 305.689 73.3809 304.793 73.7793 304.02C74.1777 303.234 74.752 302.584 75.502 302.068C76.252 301.541 77.1543 301.143 78.209 300.873C79.2637 300.604 80.4414 300.469 81.7422 300.469H85.5215ZM96.5781 297.041V312H93.3262V292.98H96.4023L96.5781 297.041ZM95.8047 301.77L94.4512 301.717C94.4629 300.416 94.6562 299.215 95.0312 298.113C95.4062 297 95.9336 296.033 96.6133 295.213C97.293 294.393 98.1016 293.76 99.0391 293.314C99.9883 292.857 101.037 292.629 102.186 292.629C103.123 292.629 103.967 292.758 104.717 293.016C105.467 293.262 106.105 293.66 106.633 294.211C107.172 294.762 107.582 295.477 107.863 296.355C108.145 297.223 108.285 298.283 108.285 299.537V312H105.016V299.502C105.016 298.506 104.869 297.709 104.576 297.111C104.283 296.502 103.855 296.062 103.293 295.793C102.73 295.512 102.039 295.371 101.219 295.371C100.41 295.371 99.6719 295.541 99.0039 295.881C98.3477 296.221 97.7793 296.689 97.2988 297.287C96.8301 297.885 96.4609 298.57 96.1914 299.344C95.9336 300.105 95.8047 300.914 95.8047 301.77ZM134.143 308.309V285H137.412V312H134.424L134.143 308.309ZM121.346 302.701V302.332C121.346 300.879 121.521 299.561 121.873 298.377C122.236 297.182 122.746 296.156 123.402 295.301C124.07 294.445 124.861 293.789 125.775 293.332C126.701 292.863 127.732 292.629 128.869 292.629C130.064 292.629 131.107 292.84 131.998 293.262C132.9 293.672 133.662 294.275 134.283 295.072C134.916 295.857 135.414 296.807 135.777 297.92C136.141 299.033 136.393 300.293 136.533 301.699V303.316C136.404 304.711 136.152 305.965 135.777 307.078C135.414 308.191 134.916 309.141 134.283 309.926C133.662 310.711 132.9 311.314 131.998 311.736C131.096 312.146 130.041 312.352 128.834 312.352C127.721 312.352 126.701 312.111 125.775 311.631C124.861 311.15 124.07 310.477 123.402 309.609C122.746 308.742 122.236 307.723 121.873 306.551C121.521 305.367 121.346 304.084 121.346 302.701ZM124.615 302.332V302.701C124.615 303.65 124.709 304.541 124.896 305.373C125.096 306.205 125.4 306.938 125.811 307.57C126.221 308.203 126.742 308.701 127.375 309.064C128.008 309.416 128.764 309.592 129.643 309.592C130.721 309.592 131.605 309.363 132.297 308.906C133 308.449 133.562 307.846 133.984 307.096C134.406 306.346 134.734 305.531 134.969 304.652V300.416C134.828 299.771 134.623 299.15 134.354 298.553C134.096 297.943 133.756 297.404 133.334 296.936C132.924 296.455 132.414 296.074 131.805 295.793C131.207 295.512 130.498 295.371 129.678 295.371C128.787 295.371 128.02 295.559 127.375 295.934C126.742 296.297 126.221 296.801 125.811 297.445C125.4 298.078 125.096 298.816 124.896 299.66C124.709 300.492 124.615 301.383 124.615 302.332ZM141.613 302.701V302.297C141.613 300.926 141.812 299.654 142.211 298.482C142.609 297.299 143.184 296.273 143.934 295.406C144.684 294.527 145.592 293.848 146.658 293.367C147.725 292.875 148.92 292.629 150.244 292.629C151.58 292.629 152.781 292.875 153.848 293.367C154.926 293.848 155.84 294.527 156.59 295.406C157.352 296.273 157.932 297.299 158.33 298.482C158.729 299.654 158.928 300.926 158.928 302.297V302.701C158.928 304.072 158.729 305.344 158.33 306.516C157.932 307.688 157.352 308.713 156.59 309.592C155.84 310.459 154.932 311.139 153.865 311.631C152.811 312.111 151.615 312.352 150.279 312.352C148.943 312.352 147.742 312.111 146.676 311.631C145.609 311.139 144.695 310.459 143.934 309.592C143.184 308.713 142.609 307.688 142.211 306.516C141.812 305.344 141.613 304.072 141.613 302.701ZM144.865 302.297V302.701C144.865 303.65 144.977 304.547 145.199 305.391C145.422 306.223 145.756 306.961 146.201 307.605C146.658 308.25 147.227 308.76 147.906 309.135C148.586 309.498 149.377 309.68 150.279 309.68C151.17 309.68 151.949 309.498 152.617 309.135C153.297 308.76 153.859 308.25 154.305 307.605C154.75 306.961 155.084 306.223 155.307 305.391C155.541 304.547 155.658 303.65 155.658 302.701V302.297C155.658 301.359 155.541 300.475 155.307 299.643C155.084 298.799 154.744 298.055 154.287 297.41C153.842 296.754 153.279 296.238 152.6 295.863C151.932 295.488 151.146 295.301 150.244 295.301C149.354 295.301 148.568 295.488 147.889 295.863C147.221 296.238 146.658 296.754 146.201 297.41C145.756 298.055 145.422 298.799 145.199 299.643C144.977 300.475 144.865 301.359 144.865 302.297ZM172.428 286.406H180.9C182.822 286.406 184.445 286.699 185.77 287.285C187.105 287.871 188.119 288.738 188.811 289.887C189.514 291.023 189.865 292.424 189.865 294.088C189.865 295.26 189.625 296.332 189.145 297.305C188.676 298.266 187.996 299.086 187.105 299.766C186.227 300.434 185.172 300.932 183.941 301.26L182.992 301.629H175.029L174.994 298.869H181.006C182.225 298.869 183.238 298.658 184.047 298.236C184.855 297.803 185.465 297.223 185.875 296.496C186.285 295.77 186.49 294.967 186.49 294.088C186.49 293.104 186.297 292.242 185.91 291.504C185.523 290.766 184.914 290.197 184.082 289.799C183.262 289.389 182.201 289.184 180.9 289.184H175.82V312H172.428V286.406ZM187.387 312L181.164 300.398L184.697 300.381L191.008 311.789V312H187.387ZM205.334 308.748V298.957C205.334 298.207 205.182 297.557 204.877 297.006C204.584 296.443 204.139 296.01 203.541 295.705C202.943 295.4 202.205 295.248 201.326 295.248C200.506 295.248 199.785 295.389 199.164 295.67C198.555 295.951 198.074 296.32 197.723 296.777C197.383 297.234 197.213 297.727 197.213 298.254H193.961C193.961 297.574 194.137 296.9 194.488 296.232C194.84 295.564 195.344 294.961 196 294.422C196.668 293.871 197.465 293.438 198.391 293.121C199.328 292.793 200.371 292.629 201.52 292.629C202.902 292.629 204.121 292.863 205.176 293.332C206.242 293.801 207.074 294.51 207.672 295.459C208.281 296.396 208.586 297.574 208.586 298.992V307.852C208.586 308.484 208.639 309.158 208.744 309.873C208.861 310.588 209.031 311.203 209.254 311.719V312H205.861C205.697 311.625 205.568 311.127 205.475 310.506C205.381 309.873 205.334 309.287 205.334 308.748ZM205.896 300.469L205.932 302.754H202.645C201.719 302.754 200.893 302.83 200.166 302.982C199.439 303.123 198.83 303.34 198.338 303.633C197.846 303.926 197.471 304.295 197.213 304.74C196.955 305.174 196.826 305.684 196.826 306.27C196.826 306.867 196.961 307.412 197.23 307.904C197.5 308.396 197.904 308.789 198.443 309.082C198.994 309.363 199.668 309.504 200.465 309.504C201.461 309.504 202.34 309.293 203.102 308.871C203.863 308.449 204.467 307.934 204.912 307.324C205.369 306.715 205.615 306.123 205.65 305.549L207.039 307.113C206.957 307.605 206.734 308.15 206.371 308.748C206.008 309.346 205.521 309.92 204.912 310.471C204.314 311.01 203.6 311.461 202.768 311.824C201.947 312.176 201.021 312.352 199.99 312.352C198.701 312.352 197.57 312.1 196.598 311.596C195.637 311.092 194.887 310.418 194.348 309.574C193.82 308.719 193.557 307.764 193.557 306.709C193.557 305.689 193.756 304.793 194.154 304.02C194.553 303.234 195.127 302.584 195.877 302.068C196.627 301.541 197.529 301.143 198.584 300.873C199.639 300.604 200.816 300.469 202.117 300.469H205.896ZM225.689 308.309V285H228.959V312H225.971L225.689 308.309ZM212.893 302.701V302.332C212.893 300.879 213.068 299.561 213.42 298.377C213.783 297.182 214.293 296.156 214.949 295.301C215.617 294.445 216.408 293.789 217.322 293.332C218.248 292.863 219.279 292.629 220.416 292.629C221.611 292.629 222.654 292.84 223.545 293.262C224.447 293.672 225.209 294.275 225.83 295.072C226.463 295.857 226.961 296.807 227.324 297.92C227.688 299.033 227.939 300.293 228.08 301.699V303.316C227.951 304.711 227.699 305.965 227.324 307.078C226.961 308.191 226.463 309.141 225.83 309.926C225.209 310.711 224.447 311.314 223.545 311.736C222.643 312.146 221.588 312.352 220.381 312.352C219.268 312.352 218.248 312.111 217.322 311.631C216.408 311.15 215.617 310.477 214.949 309.609C214.293 308.742 213.783 307.723 213.42 306.551C213.068 305.367 212.893 304.084 212.893 302.701ZM216.162 302.332V302.701C216.162 303.65 216.256 304.541 216.443 305.373C216.643 306.205 216.947 306.938 217.357 307.57C217.768 308.203 218.289 308.701 218.922 309.064C219.555 309.416 220.311 309.592 221.189 309.592C222.268 309.592 223.152 309.363 223.844 308.906C224.547 308.449 225.109 307.846 225.531 307.096C225.953 306.346 226.281 305.531 226.516 304.652V300.416C226.375 299.771 226.17 299.15 225.9 298.553C225.643 297.943 225.303 297.404 224.881 296.936C224.471 296.455 223.961 296.074 223.352 295.793C222.754 295.512 222.045 295.371 221.225 295.371C220.334 295.371 219.566 295.559 218.922 295.934C218.289 296.297 217.768 296.801 217.357 297.445C216.947 298.078 216.643 298.816 216.443 299.66C216.256 300.492 216.162 301.383 216.162 302.332ZM237.555 292.98V312H234.285V292.98H237.555ZM234.039 287.936C234.039 287.408 234.197 286.963 234.514 286.6C234.842 286.236 235.322 286.055 235.955 286.055C236.576 286.055 237.051 286.236 237.379 286.6C237.719 286.963 237.889 287.408 237.889 287.936C237.889 288.439 237.719 288.873 237.379 289.236C237.051 289.588 236.576 289.764 235.955 289.764C235.322 289.764 234.842 289.588 234.514 289.236C234.197 288.873 234.039 288.439 234.039 287.936ZM241.914 302.701V302.297C241.914 300.926 242.113 299.654 242.512 298.482C242.91 297.299 243.484 296.273 244.234 295.406C244.984 294.527 245.893 293.848 246.959 293.367C248.025 292.875 249.221 292.629 250.545 292.629C251.881 292.629 253.082 292.875 254.148 293.367C255.227 293.848 256.141 294.527 256.891 295.406C257.652 296.273 258.232 297.299 258.631 298.482C259.029 299.654 259.229 300.926 259.229 302.297V302.701C259.229 304.072 259.029 305.344 258.631 306.516C258.232 307.688 257.652 308.713 256.891 309.592C256.141 310.459 255.232 311.139 254.166 311.631C253.111 312.111 251.916 312.352 250.58 312.352C249.244 312.352 248.043 312.111 246.977 311.631C245.91 311.139 244.996 310.459 244.234 309.592C243.484 308.713 242.91 307.688 242.512 306.516C242.113 305.344 241.914 304.072 241.914 302.701ZM245.166 302.297V302.701C245.166 303.65 245.277 304.547 245.5 305.391C245.723 306.223 246.057 306.961 246.502 307.605C246.959 308.25 247.527 308.76 248.207 309.135C248.887 309.498 249.678 309.68 250.58 309.68C251.471 309.68 252.25 309.498 252.918 309.135C253.598 308.76 254.16 308.25 254.605 307.605C255.051 306.961 255.385 306.223 255.607 305.391C255.842 304.547 255.959 303.65 255.959 302.701V302.297C255.959 301.359 255.842 300.475 255.607 299.643C255.385 298.799 255.045 298.055 254.588 297.41C254.143 296.754 253.58 296.238 252.9 295.863C252.232 295.488 251.447 295.301 250.545 295.301C249.654 295.301 248.869 295.488 248.189 295.863C247.521 296.238 246.959 296.754 246.502 297.41C246.057 298.055 245.723 298.799 245.5 299.643C245.277 300.475 245.166 301.359 245.166 302.297ZM275.295 308.309V285H278.564V312H275.576L275.295 308.309ZM262.498 302.701V302.332C262.498 300.879 262.674 299.561 263.025 298.377C263.389 297.182 263.898 296.156 264.555 295.301C265.223 294.445 266.014 293.789 266.928 293.332C267.854 292.863 268.885 292.629 270.021 292.629C271.217 292.629 272.26 292.84 273.15 293.262C274.053 293.672 274.814 294.275 275.436 295.072C276.068 295.857 276.566 296.807 276.93 297.92C277.293 299.033 277.545 300.293 277.686 301.699V303.316C277.557 304.711 277.305 305.965 276.93 307.078C276.566 308.191 276.068 309.141 275.436 309.926C274.814 310.711 274.053 311.314 273.15 311.736C272.248 312.146 271.193 312.352 269.986 312.352C268.873 312.352 267.854 312.111 266.928 311.631C266.014 311.15 265.223 310.477 264.555 309.609C263.898 308.742 263.389 307.723 263.025 306.551C262.674 305.367 262.498 304.084 262.498 302.701ZM265.768 302.332V302.701C265.768 303.65 265.861 304.541 266.049 305.373C266.248 306.205 266.553 306.938 266.963 307.57C267.373 308.203 267.895 308.701 268.527 309.064C269.16 309.416 269.916 309.592 270.795 309.592C271.873 309.592 272.758 309.363 273.449 308.906C274.152 308.449 274.715 307.846 275.137 307.096C275.559 306.346 275.887 305.531 276.121 304.652V300.416C275.98 299.771 275.775 299.15 275.506 298.553C275.248 297.943 274.908 297.404 274.486 296.936C274.076 296.455 273.566 296.074 272.957 295.793C272.359 295.512 271.65 295.371 270.83 295.371C269.939 295.371 269.172 295.559 268.527 295.934C267.895 296.297 267.373 296.801 266.963 297.445C266.553 298.078 266.248 298.816 266.049 299.66C265.861 300.492 265.768 301.383 265.768 302.332ZM287.16 292.98V312H283.891V292.98H287.16ZM283.645 287.936C283.645 287.408 283.803 286.963 284.119 286.6C284.447 286.236 284.928 286.055 285.561 286.055C286.182 286.055 286.656 286.236 286.984 286.6C287.324 286.963 287.494 287.408 287.494 287.936C287.494 288.439 287.324 288.873 286.984 289.236C286.656 289.588 286.182 289.764 285.561 289.764C284.928 289.764 284.447 289.588 284.119 289.236C283.803 288.873 283.645 288.439 283.645 287.936ZM297.232 312H293.98V290.977C293.98 289.605 294.227 288.451 294.719 287.514C295.223 286.564 295.943 285.85 296.881 285.369C297.818 284.877 298.932 284.631 300.221 284.631C300.596 284.631 300.971 284.654 301.346 284.701C301.732 284.748 302.107 284.818 302.471 284.912L302.295 287.566C302.049 287.508 301.768 287.467 301.451 287.443C301.146 287.42 300.842 287.408 300.537 287.408C299.846 287.408 299.248 287.549 298.744 287.83C298.252 288.1 297.877 288.498 297.619 289.025C297.361 289.553 297.232 290.203 297.232 290.977V312ZM301.275 292.98V295.477H290.975V292.98H301.275ZM316.533 307.605V292.98H319.803V312H316.691L316.533 307.605ZM317.148 303.598L318.502 303.562C318.502 304.828 318.367 306 318.098 307.078C317.84 308.145 317.418 309.07 316.832 309.855C316.246 310.641 315.479 311.256 314.529 311.701C313.58 312.135 312.426 312.352 311.066 312.352C310.141 312.352 309.291 312.217 308.518 311.947C307.756 311.678 307.1 311.262 306.549 310.699C305.998 310.137 305.57 309.404 305.266 308.502C304.973 307.6 304.826 306.516 304.826 305.25V292.98H308.078V305.285C308.078 306.141 308.172 306.85 308.359 307.412C308.559 307.963 308.822 308.402 309.15 308.73C309.49 309.047 309.865 309.27 310.275 309.398C310.697 309.527 311.131 309.592 311.576 309.592C312.959 309.592 314.055 309.328 314.863 308.801C315.672 308.262 316.252 307.541 316.604 306.639C316.967 305.725 317.148 304.711 317.148 303.598ZM335.834 306.955C335.834 306.486 335.729 306.053 335.518 305.654C335.318 305.244 334.902 304.875 334.27 304.547C333.648 304.207 332.711 303.914 331.457 303.668C330.402 303.445 329.447 303.182 328.592 302.877C327.748 302.572 327.027 302.203 326.43 301.77C325.844 301.336 325.393 300.826 325.076 300.24C324.76 299.654 324.602 298.969 324.602 298.184C324.602 297.434 324.766 296.725 325.094 296.057C325.434 295.389 325.908 294.797 326.518 294.281C327.139 293.766 327.883 293.361 328.75 293.068C329.617 292.775 330.584 292.629 331.65 292.629C333.174 292.629 334.475 292.898 335.553 293.438C336.631 293.977 337.457 294.697 338.031 295.6C338.605 296.49 338.893 297.48 338.893 298.57H335.641C335.641 298.043 335.482 297.533 335.166 297.041C334.861 296.537 334.41 296.121 333.812 295.793C333.227 295.465 332.506 295.301 331.65 295.301C330.748 295.301 330.016 295.441 329.453 295.723C328.902 295.992 328.498 296.338 328.24 296.76C327.994 297.182 327.871 297.627 327.871 298.096C327.871 298.447 327.93 298.764 328.047 299.045C328.176 299.314 328.398 299.566 328.715 299.801C329.031 300.023 329.477 300.234 330.051 300.434C330.625 300.633 331.357 300.832 332.248 301.031C333.807 301.383 335.09 301.805 336.098 302.297C337.105 302.789 337.855 303.393 338.348 304.107C338.84 304.822 339.086 305.689 339.086 306.709C339.086 307.541 338.91 308.303 338.559 308.994C338.219 309.686 337.721 310.283 337.064 310.787C336.42 311.279 335.646 311.666 334.744 311.947C333.854 312.217 332.852 312.352 331.738 312.352C330.062 312.352 328.645 312.053 327.484 311.455C326.324 310.857 325.445 310.084 324.848 309.135C324.25 308.186 323.951 307.184 323.951 306.129H327.221C327.268 307.02 327.525 307.729 327.994 308.256C328.463 308.771 329.037 309.141 329.717 309.363C330.396 309.574 331.07 309.68 331.738 309.68C332.629 309.68 333.373 309.562 333.971 309.328C334.58 309.094 335.043 308.771 335.359 308.361C335.676 307.951 335.834 307.482 335.834 306.955ZM342.496 302.701V302.297C342.496 300.926 342.695 299.654 343.094 298.482C343.492 297.299 344.066 296.273 344.816 295.406C345.566 294.527 346.475 293.848 347.541 293.367C348.607 292.875 349.803 292.629 351.127 292.629C352.463 292.629 353.664 292.875 354.73 293.367C355.809 293.848 356.723 294.527 357.473 295.406C358.234 296.273 358.814 297.299 359.213 298.482C359.611 299.654 359.811 300.926 359.811 302.297V302.701C359.811 304.072 359.611 305.344 359.213 306.516C358.814 307.688 358.234 308.713 357.473 309.592C356.723 310.459 355.814 311.139 354.748 311.631C353.693 312.111 352.498 312.352 351.162 312.352C349.826 312.352 348.625 312.111 347.559 311.631C346.492 311.139 345.578 310.459 344.816 309.592C344.066 308.713 343.492 307.688 343.094 306.516C342.695 305.344 342.496 304.072 342.496 302.701ZM345.748 302.297V302.701C345.748 303.65 345.859 304.547 346.082 305.391C346.305 306.223 346.639 306.961 347.084 307.605C347.541 308.25 348.109 308.76 348.789 309.135C349.469 309.498 350.26 309.68 351.162 309.68C352.053 309.68 352.832 309.498 353.5 309.135C354.18 308.76 354.742 308.25 355.188 307.605C355.633 306.961 355.967 306.223 356.189 305.391C356.424 304.547 356.541 303.65 356.541 302.701V302.297C356.541 301.359 356.424 300.475 356.189 299.643C355.967 298.799 355.627 298.055 355.17 297.41C354.725 296.754 354.162 296.238 353.482 295.863C352.814 295.488 352.029 295.301 351.127 295.301C350.236 295.301 349.451 295.488 348.771 295.863C348.104 296.238 347.541 296.754 347.084 297.41C346.639 298.055 346.305 298.799 346.082 299.643C345.859 300.475 345.748 301.359 345.748 302.297ZM367.141 295.969V312H363.889V292.98H367.053L367.141 295.969ZM373.082 292.875L373.064 295.898C372.795 295.84 372.537 295.805 372.291 295.793C372.057 295.77 371.787 295.758 371.482 295.758C370.732 295.758 370.07 295.875 369.496 296.109C368.922 296.344 368.436 296.672 368.037 297.094C367.639 297.516 367.322 298.02 367.088 298.605C366.865 299.18 366.719 299.812 366.648 300.504L365.734 301.031C365.734 299.883 365.846 298.805 366.068 297.797C366.303 296.789 366.66 295.898 367.141 295.125C367.621 294.34 368.23 293.73 368.969 293.297C369.719 292.852 370.609 292.629 371.641 292.629C371.875 292.629 372.145 292.658 372.449 292.717C372.754 292.764 372.965 292.816 373.082 292.875Z" fill="white"/>
</svg>
