<svg width="521" height="108" viewBox="0 0 521 108" fill="none" xmlns="http://www.w3.org/2000/svg">
<path fill-rule="evenodd" clip-rule="evenodd" d="M121.5 0H13.5C6.075 0 0 6.06275 0 13.4728V94.3095C0 101.72 6.075 107.782 13.5 107.782H121.5C128.925 107.782 135 101.72 135 94.3095V13.4728C135 6.06275 128.925 0 121.5 0ZM121.5 94.3095H13.5V13.4728H121.5V94.3095ZM60.75 72.2141L81 47.1547L108 80.8367H27L47.25 53.8911L60.75 72.2141Z" fill="white"/>
<path d="M172.126 10.4531H183.894C186.563 10.4531 188.817 10.86 190.656 11.6738C192.512 12.4876 193.92 13.6921 194.88 15.2871C195.856 16.8659 196.345 18.8109 196.345 21.1221C196.345 22.7497 196.011 24.2389 195.344 25.5898C194.693 26.9245 193.749 28.0638 192.512 29.0078C191.291 29.9355 189.826 30.6273 188.117 31.083L186.799 31.5957H175.739L175.69 27.7627H184.04C185.733 27.7627 187.141 27.4697 188.264 26.8838C189.387 26.2816 190.233 25.4759 190.803 24.4668C191.372 23.4577 191.657 22.3428 191.657 21.1221C191.657 19.7549 191.389 18.5586 190.852 17.5332C190.314 16.5078 189.468 15.7184 188.312 15.165C187.173 14.5954 185.7 14.3105 183.894 14.3105H176.838V46H172.126V10.4531ZM192.902 46L184.26 29.8867L189.167 29.8623L197.932 45.707V46H192.902ZM217.579 41.4834V27.8848C217.579 26.8431 217.368 25.9398 216.944 25.1748C216.537 24.3936 215.919 23.7913 215.089 23.3682C214.259 22.945 213.233 22.7334 212.013 22.7334C210.873 22.7334 209.872 22.9287 209.01 23.3193C208.163 23.71 207.496 24.2227 207.008 24.8574C206.536 25.4922 206.3 26.1758 206.3 26.9082H201.783C201.783 25.9642 202.027 25.0283 202.516 24.1006C203.004 23.1729 203.704 22.3346 204.615 21.5859C205.543 20.821 206.65 20.2188 207.936 19.7793C209.238 19.3236 210.686 19.0957 212.281 19.0957C214.202 19.0957 215.895 19.4212 217.359 20.0723C218.84 20.7233 219.996 21.708 220.826 23.0264C221.673 24.3285 222.096 25.9642 222.096 27.9336V40.2383C222.096 41.1172 222.169 42.0531 222.315 43.0459C222.478 44.0387 222.714 44.8932 223.023 45.6094V46H218.312C218.084 45.4792 217.905 44.7874 217.774 43.9248C217.644 43.0459 217.579 42.2321 217.579 41.4834ZM218.36 29.9844L218.409 33.1582H213.844C212.558 33.1582 211.41 33.264 210.401 33.4756C209.392 33.6709 208.546 33.972 207.862 34.3789C207.179 34.7858 206.658 35.2985 206.3 35.917C205.942 36.5192 205.763 37.2272 205.763 38.041C205.763 38.8711 205.95 39.6279 206.324 40.3115C206.699 40.9951 207.26 41.5404 208.009 41.9473C208.774 42.3379 209.71 42.5332 210.816 42.5332C212.2 42.5332 213.421 42.2402 214.479 41.6543C215.536 41.0684 216.375 40.3522 216.993 39.5059C217.628 38.6595 217.97 37.8376 218.019 37.04L219.947 39.2129C219.833 39.8965 219.524 40.6533 219.02 41.4834C218.515 42.3135 217.84 43.111 216.993 43.876C216.163 44.6247 215.17 45.2513 214.015 45.7559C212.875 46.2441 211.59 46.4883 210.157 46.4883C208.367 46.4883 206.796 46.1383 205.445 45.4385C204.111 44.7386 203.069 43.8027 202.32 42.6309C201.588 41.4427 201.222 40.1162 201.222 38.6514C201.222 37.2354 201.498 35.9902 202.052 34.916C202.605 33.8255 203.403 32.9222 204.444 32.2061C205.486 31.4736 206.739 30.9202 208.204 30.5459C209.669 30.1715 211.305 29.9844 213.111 29.9844H218.36ZM245.601 40.873V8.5H250.142V46H245.991L245.601 40.873ZM227.827 33.085V32.5723C227.827 30.554 228.071 28.723 228.56 27.0791C229.064 25.4189 229.772 23.9948 230.684 22.8066C231.611 21.6185 232.71 20.707 233.979 20.0723C235.265 19.4212 236.698 19.0957 238.276 19.0957C239.937 19.0957 241.385 19.3887 242.622 19.9746C243.875 20.5443 244.933 21.3825 245.796 22.4893C246.675 23.5798 247.367 24.8981 247.871 26.4443C248.376 27.9906 248.726 29.7402 248.921 31.6934V33.9395C248.742 35.8763 248.392 37.6178 247.871 39.1641C247.367 40.7103 246.675 42.0286 245.796 43.1191C244.933 44.2096 243.875 45.0479 242.622 45.6338C241.369 46.2035 239.904 46.4883 238.228 46.4883C236.681 46.4883 235.265 46.1546 233.979 45.4873C232.71 44.82 231.611 43.8841 230.684 42.6797C229.772 41.4753 229.064 40.0592 228.56 38.4316C228.071 36.7878 227.827 35.0055 227.827 33.085ZM232.368 32.5723V33.085C232.368 34.4033 232.498 35.6403 232.759 36.7959C233.035 37.9515 233.459 38.9688 234.028 39.8477C234.598 40.7266 235.322 41.4183 236.201 41.9229C237.08 42.4111 238.13 42.6553 239.351 42.6553C240.848 42.6553 242.077 42.3379 243.037 41.7031C244.014 41.0684 244.795 40.2301 245.381 39.1885C245.967 38.1468 246.423 37.0156 246.748 35.7949V29.9111C246.553 29.016 246.268 28.1533 245.894 27.3232C245.535 26.4769 245.063 25.7282 244.478 25.0771C243.908 24.4098 243.2 23.8809 242.354 23.4902C241.523 23.0996 240.539 22.9043 239.399 22.9043C238.162 22.9043 237.096 23.1647 236.201 23.6855C235.322 24.1901 234.598 24.89 234.028 25.7852C233.459 26.6641 233.035 27.6895 232.759 28.8613C232.498 30.0169 232.368 31.2539 232.368 32.5723ZM261.83 19.584V46H257.289V19.584H261.83ZM256.947 12.5771C256.947 11.8447 257.167 11.2262 257.606 10.7217C258.062 10.2171 258.729 9.96484 259.608 9.96484C260.471 9.96484 261.13 10.2171 261.586 10.7217C262.058 11.2262 262.294 11.8447 262.294 12.5771C262.294 13.277 262.058 13.8792 261.586 14.3838C261.13 14.8721 260.471 15.1162 259.608 15.1162C258.729 15.1162 258.062 14.8721 257.606 14.3838C257.167 13.8792 256.947 13.277 256.947 12.5771ZM267.635 33.085V32.5234C267.635 30.6191 267.911 28.8532 268.465 27.2256C269.018 25.5817 269.816 24.1576 270.857 22.9531C271.899 21.7324 273.16 20.7884 274.642 20.1211C276.123 19.4375 277.783 19.0957 279.622 19.0957C281.478 19.0957 283.146 19.4375 284.627 20.1211C286.124 20.7884 287.394 21.7324 288.436 22.9531C289.493 24.1576 290.299 25.5817 290.853 27.2256C291.406 28.8532 291.683 30.6191 291.683 32.5234V33.085C291.683 34.9893 291.406 36.7552 290.853 38.3828C290.299 40.0104 289.493 41.4346 288.436 42.6553C287.394 43.8597 286.132 44.8037 284.651 45.4873C283.187 46.1546 281.526 46.4883 279.671 46.4883C277.815 46.4883 276.147 46.1546 274.666 45.4873C273.185 44.8037 271.915 43.8597 270.857 42.6553C269.816 41.4346 269.018 40.0104 268.465 38.3828C267.911 36.7552 267.635 34.9893 267.635 33.085ZM272.151 32.5234V33.085C272.151 34.4033 272.306 35.6484 272.615 36.8203C272.924 37.9759 273.388 39.0013 274.007 39.8965C274.642 40.7917 275.431 41.4997 276.375 42.0205C277.319 42.5251 278.418 42.7773 279.671 42.7773C280.908 42.7773 281.99 42.5251 282.918 42.0205C283.862 41.4997 284.643 40.7917 285.262 39.8965C285.88 39.0013 286.344 37.9759 286.653 36.8203C286.979 35.6484 287.142 34.4033 287.142 33.085V32.5234C287.142 31.2214 286.979 29.9925 286.653 28.8369C286.344 27.665 285.872 26.6315 285.237 25.7363C284.619 24.8249 283.838 24.1087 282.894 23.5879C281.966 23.0671 280.875 22.8066 279.622 22.8066C278.385 22.8066 277.295 23.0671 276.351 23.5879C275.423 24.1087 274.642 24.8249 274.007 25.7363C273.388 26.6315 272.924 27.665 272.615 28.8369C272.306 29.9925 272.151 31.2214 272.151 32.5234ZM313.747 40.873V8.5H318.288V46H314.138L313.747 40.873ZM295.974 33.085V32.5723C295.974 30.554 296.218 28.723 296.706 27.0791C297.211 25.4189 297.919 23.9948 298.83 22.8066C299.758 21.6185 300.856 20.707 302.126 20.0723C303.412 19.4212 304.844 19.0957 306.423 19.0957C308.083 19.0957 309.532 19.3887 310.769 19.9746C312.022 20.5443 313.08 21.3825 313.942 22.4893C314.821 23.5798 315.513 24.8981 316.018 26.4443C316.522 27.9906 316.872 29.7402 317.067 31.6934V33.9395C316.888 35.8763 316.538 37.6178 316.018 39.1641C315.513 40.7103 314.821 42.0286 313.942 43.1191C313.08 44.2096 312.022 45.0479 310.769 45.6338C309.515 46.2035 308.05 46.4883 306.374 46.4883C304.828 46.4883 303.412 46.1546 302.126 45.4873C300.856 44.82 299.758 43.8841 298.83 42.6797C297.919 41.4753 297.211 40.0592 296.706 38.4316C296.218 36.7878 295.974 35.0055 295.974 33.085ZM300.515 32.5723V33.085C300.515 34.4033 300.645 35.6403 300.905 36.7959C301.182 37.9515 301.605 38.9688 302.175 39.8477C302.744 40.7266 303.469 41.4183 304.348 41.9229C305.227 42.4111 306.276 42.6553 307.497 42.6553C308.994 42.6553 310.223 42.3379 311.184 41.7031C312.16 41.0684 312.941 40.2301 313.527 39.1885C314.113 38.1468 314.569 37.0156 314.895 35.7949V29.9111C314.699 29.016 314.414 28.1533 314.04 27.3232C313.682 26.4769 313.21 25.7282 312.624 25.0771C312.054 24.4098 311.346 23.8809 310.5 23.4902C309.67 23.0996 308.685 22.9043 307.546 22.9043C306.309 22.9043 305.243 23.1647 304.348 23.6855C303.469 24.1901 302.744 24.89 302.175 25.7852C301.605 26.6641 301.182 27.6895 300.905 28.8613C300.645 30.0169 300.515 31.2539 300.515 32.5723ZM329.977 19.584V46H325.436V19.584H329.977ZM325.094 12.5771C325.094 11.8447 325.313 11.2262 325.753 10.7217C326.209 10.2171 326.876 9.96484 327.755 9.96484C328.618 9.96484 329.277 10.2171 329.732 10.7217C330.204 11.2262 330.44 11.8447 330.44 12.5771C330.44 13.277 330.204 13.8792 329.732 14.3838C329.277 14.8721 328.618 15.1162 327.755 15.1162C326.876 15.1162 326.209 14.8721 325.753 14.3838C325.313 13.8792 325.094 13.277 325.094 12.5771ZM343.716 46H339.199V16.8008C339.199 14.8965 339.541 13.2933 340.225 11.9912C340.924 10.6729 341.925 9.68001 343.228 9.0127C344.53 8.3291 346.076 7.9873 347.866 7.9873C348.387 7.9873 348.908 8.01986 349.429 8.08496C349.966 8.15007 350.487 8.24772 350.991 8.37793L350.747 12.0645C350.405 11.9831 350.015 11.9261 349.575 11.8936C349.152 11.861 348.729 11.8447 348.306 11.8447C347.345 11.8447 346.515 12.04 345.815 12.4307C345.132 12.805 344.611 13.3584 344.253 14.0908C343.895 14.8232 343.716 15.7266 343.716 16.8008V46ZM349.331 19.584V23.0508H335.024V19.584H349.331ZM370.272 39.8965V19.584H374.813V46H370.492L370.272 39.8965ZM371.127 34.3301L373.007 34.2812C373.007 36.0391 372.82 37.6667 372.445 39.1641C372.087 40.6452 371.501 41.931 370.688 43.0215C369.874 44.112 368.808 44.9665 367.489 45.585C366.171 46.1872 364.568 46.4883 362.68 46.4883C361.394 46.4883 360.214 46.3011 359.14 45.9268C358.082 45.5524 357.17 44.9746 356.405 44.1934C355.64 43.4121 355.046 42.3949 354.623 41.1416C354.216 39.8883 354.013 38.3828 354.013 36.625V19.584H358.529V36.6738C358.529 37.862 358.66 38.8467 358.92 39.6279C359.197 40.3929 359.563 41.0033 360.019 41.459C360.491 41.8984 361.011 42.2077 361.581 42.3867C362.167 42.5658 362.769 42.6553 363.388 42.6553C365.308 42.6553 366.83 42.2891 367.953 41.5566C369.076 40.8079 369.882 39.807 370.37 38.5537C370.875 37.2842 371.127 35.8763 371.127 34.3301ZM396.829 38.9932C396.829 38.3421 396.683 37.7399 396.39 37.1865C396.113 36.6169 395.535 36.1042 394.656 35.6484C393.794 35.1764 392.492 34.7695 390.75 34.4277C389.285 34.1185 387.959 33.7523 386.771 33.3291C385.599 32.9059 384.598 32.3932 383.768 31.791C382.954 31.1888 382.327 30.4808 381.888 29.667C381.448 28.8532 381.229 27.901 381.229 26.8105C381.229 25.7689 381.456 24.7842 381.912 23.8564C382.384 22.9287 383.043 22.1068 383.89 21.3906C384.752 20.6745 385.786 20.113 386.99 19.7061C388.195 19.2992 389.537 19.0957 391.019 19.0957C393.134 19.0957 394.941 19.4701 396.438 20.2188C397.936 20.9674 399.083 21.9684 399.881 23.2217C400.678 24.4587 401.077 25.834 401.077 27.3477H396.561C396.561 26.6152 396.341 25.9072 395.901 25.2236C395.478 24.5238 394.852 23.946 394.021 23.4902C393.208 23.0345 392.207 22.8066 391.019 22.8066C389.765 22.8066 388.748 23.002 387.967 23.3926C387.202 23.7669 386.64 24.2471 386.282 24.833C385.94 25.4189 385.77 26.0374 385.77 26.6885C385.77 27.1768 385.851 27.6162 386.014 28.0068C386.193 28.3812 386.502 28.7311 386.941 29.0566C387.381 29.3659 387.999 29.6589 388.797 29.9355C389.594 30.2122 390.612 30.4889 391.849 30.7656C394.013 31.2539 395.796 31.8398 397.195 32.5234C398.595 33.207 399.637 34.0452 400.32 35.0381C401.004 36.0309 401.346 37.2354 401.346 38.6514C401.346 39.807 401.102 40.8649 400.613 41.8252C400.141 42.7855 399.45 43.6156 398.538 44.3154C397.643 44.999 396.569 45.5361 395.315 45.9268C394.078 46.3011 392.687 46.4883 391.141 46.4883C388.813 46.4883 386.844 46.0732 385.232 45.2432C383.621 44.4131 382.4 43.3389 381.57 42.0205C380.74 40.7021 380.325 39.3105 380.325 37.8457H384.866C384.931 39.0827 385.289 40.0674 385.94 40.7998C386.591 41.516 387.389 42.0286 388.333 42.3379C389.277 42.6309 390.213 42.7773 391.141 42.7773C392.378 42.7773 393.411 42.6146 394.241 42.2891C395.088 41.9635 395.73 41.516 396.17 40.9463C396.609 40.3766 396.829 39.7256 396.829 38.9932ZM405.832 33.085V32.5234C405.832 30.6191 406.109 28.8532 406.662 27.2256C407.215 25.5817 408.013 24.1576 409.055 22.9531C410.096 21.7324 411.358 20.7884 412.839 20.1211C414.32 19.4375 415.98 19.0957 417.819 19.0957C419.675 19.0957 421.343 19.4375 422.824 20.1211C424.322 20.7884 425.591 21.7324 426.633 22.9531C427.691 24.1576 428.496 25.5817 429.05 27.2256C429.603 28.8532 429.88 30.6191 429.88 32.5234V33.085C429.88 34.9893 429.603 36.7552 429.05 38.3828C428.496 40.0104 427.691 41.4346 426.633 42.6553C425.591 43.8597 424.33 44.8037 422.849 45.4873C421.384 46.1546 419.724 46.4883 417.868 46.4883C416.013 46.4883 414.344 46.1546 412.863 45.4873C411.382 44.8037 410.113 43.8597 409.055 42.6553C408.013 41.4346 407.215 40.0104 406.662 38.3828C406.109 36.7552 405.832 34.9893 405.832 33.085ZM410.349 32.5234V33.085C410.349 34.4033 410.503 35.6484 410.812 36.8203C411.122 37.9759 411.586 39.0013 412.204 39.8965C412.839 40.7917 413.628 41.4997 414.572 42.0205C415.516 42.5251 416.615 42.7773 417.868 42.7773C419.105 42.7773 420.188 42.5251 421.115 42.0205C422.059 41.4997 422.84 40.7917 423.459 39.8965C424.077 39.0013 424.541 37.9759 424.851 36.8203C425.176 35.6484 425.339 34.4033 425.339 33.085V32.5234C425.339 31.2214 425.176 29.9925 424.851 28.8369C424.541 27.665 424.069 26.6315 423.435 25.7363C422.816 24.8249 422.035 24.1087 421.091 23.5879C420.163 23.0671 419.073 22.8066 417.819 22.8066C416.582 22.8066 415.492 23.0671 414.548 23.5879C413.62 24.1087 412.839 24.8249 412.204 25.7363C411.586 26.6315 411.122 27.665 410.812 28.8369C410.503 29.9925 410.349 31.2214 410.349 32.5234ZM439.811 23.7344V46H435.294V19.584H439.688L439.811 23.7344ZM448.062 19.4375L448.038 23.6367C447.664 23.5553 447.306 23.5065 446.964 23.4902C446.638 23.4577 446.264 23.4414 445.841 23.4414C444.799 23.4414 443.88 23.6042 443.082 23.9297C442.285 24.2552 441.609 24.7109 441.056 25.2969C440.502 25.8828 440.063 26.5827 439.737 27.3965C439.428 28.194 439.225 29.0729 439.127 30.0332L437.857 30.7656C437.857 29.1706 438.012 27.6732 438.321 26.2734C438.647 24.8737 439.143 23.6367 439.811 22.5625C440.478 21.472 441.324 20.6257 442.35 20.0234C443.391 19.4049 444.628 19.0957 446.061 19.0957C446.386 19.0957 446.76 19.1364 447.184 19.2178C447.607 19.2829 447.9 19.3561 448.062 19.4375ZM478.495 10.2578V46H473.979V15.8975L464.872 19.2178V15.1406L477.787 10.2578H478.495Z" fill="white"/>
<path d="M183.946 89.8906C183.946 89.3262 183.858 88.8281 183.681 88.3965C183.515 87.9538 183.216 87.5553 182.784 87.2012C182.364 86.847 181.777 86.5094 181.024 86.1885C180.283 85.8675 179.342 85.541 178.202 85.209C177.007 84.8548 175.928 84.4619 174.965 84.0303C174.002 83.5876 173.177 83.084 172.491 82.5195C171.805 81.9551 171.279 81.3076 170.914 80.5771C170.549 79.8467 170.366 79.0111 170.366 78.0703C170.366 77.1296 170.56 76.2607 170.947 75.4639C171.335 74.667 171.888 73.9753 172.607 73.3887C173.338 72.791 174.207 72.3262 175.214 71.9941C176.221 71.6621 177.344 71.4961 178.584 71.4961C180.399 71.4961 181.938 71.8447 183.199 72.542C184.472 73.2282 185.44 74.1302 186.104 75.248C186.769 76.3548 187.101 77.5391 187.101 78.8008H183.913C183.913 77.8932 183.719 77.0908 183.332 76.3936C182.945 75.6852 182.358 75.1318 181.572 74.7334C180.786 74.3239 179.79 74.1191 178.584 74.1191C177.444 74.1191 176.503 74.2907 175.762 74.6338C175.02 74.9769 174.467 75.4417 174.102 76.0283C173.747 76.6149 173.57 77.2845 173.57 78.0371C173.57 78.5462 173.675 79.0111 173.886 79.4316C174.107 79.8411 174.445 80.223 174.898 80.5771C175.363 80.9313 175.95 81.2578 176.658 81.5566C177.378 81.8555 178.235 82.1432 179.231 82.4199C180.604 82.8073 181.788 83.2389 182.784 83.7148C183.78 84.1908 184.599 84.7275 185.241 85.3252C185.894 85.9118 186.376 86.5814 186.686 87.334C187.007 88.0755 187.167 88.9167 187.167 89.8574C187.167 90.8424 186.968 91.7334 186.569 92.5303C186.171 93.3271 185.601 94.0078 184.859 94.5723C184.118 95.1367 183.227 95.5739 182.187 95.8838C181.157 96.1826 180.006 96.332 178.733 96.332C177.616 96.332 176.514 96.1771 175.43 95.8672C174.356 95.5573 173.377 95.0924 172.491 94.4727C171.617 93.8529 170.914 93.0892 170.383 92.1816C169.863 91.263 169.603 90.2005 169.603 88.9941H172.79C172.79 89.8242 172.951 90.5381 173.271 91.1357C173.592 91.7223 174.03 92.2093 174.583 92.5967C175.147 92.984 175.784 93.2718 176.492 93.46C177.212 93.637 177.959 93.7256 178.733 93.7256C179.851 93.7256 180.798 93.5706 181.572 93.2607C182.347 92.9508 182.934 92.5081 183.332 91.9326C183.742 91.3571 183.946 90.6764 183.946 89.8906ZM194.123 70.5V96H191.035V70.5H194.123ZM198.24 87.2178V86.8359C198.24 85.541 198.428 84.3402 198.805 83.2334C199.181 82.1156 199.723 81.1471 200.432 80.3281C201.14 79.498 201.998 78.8561 203.005 78.4023C204.012 77.9375 205.141 77.7051 206.392 77.7051C207.653 77.7051 208.788 77.9375 209.795 78.4023C210.813 78.8561 211.676 79.498 212.385 80.3281C213.104 81.1471 213.652 82.1156 214.028 83.2334C214.405 84.3402 214.593 85.541 214.593 86.8359V87.2178C214.593 88.5127 214.405 89.7135 214.028 90.8203C213.652 91.9271 213.104 92.8955 212.385 93.7256C211.676 94.5446 210.819 95.1865 209.812 95.6514C208.815 96.1051 207.687 96.332 206.425 96.332C205.163 96.332 204.029 96.1051 203.021 95.6514C202.014 95.1865 201.151 94.5446 200.432 93.7256C199.723 92.8955 199.181 91.9271 198.805 90.8203C198.428 89.7135 198.24 88.5127 198.24 87.2178ZM201.312 86.8359V87.2178C201.312 88.1143 201.417 88.9609 201.627 89.7578C201.837 90.5436 202.153 91.2409 202.573 91.8496C203.005 92.4583 203.542 92.9398 204.184 93.2939C204.826 93.637 205.573 93.8086 206.425 93.8086C207.266 93.8086 208.002 93.637 208.633 93.2939C209.275 92.9398 209.806 92.4583 210.227 91.8496C210.647 91.2409 210.963 90.5436 211.173 89.7578C211.394 88.9609 211.505 88.1143 211.505 87.2178V86.8359C211.505 85.9505 211.394 85.1149 211.173 84.3291C210.963 83.5322 210.642 82.8294 210.21 82.2207C209.789 81.6009 209.258 81.1139 208.616 80.7598C207.985 80.4056 207.244 80.2285 206.392 80.2285C205.55 80.2285 204.809 80.4056 204.167 80.7598C203.536 81.1139 203.005 81.6009 202.573 82.2207C202.153 82.8294 201.837 83.5322 201.627 84.3291C201.417 85.1149 201.312 85.9505 201.312 86.8359ZM230.082 78.0371H232.871V95.6182C232.871 97.2008 232.55 98.5511 231.908 99.6689C231.266 100.787 230.37 101.633 229.219 102.209C228.079 102.796 226.762 103.089 225.268 103.089C224.648 103.089 223.917 102.989 223.076 102.79C222.246 102.602 221.427 102.275 220.619 101.811C219.822 101.357 219.153 100.743 218.61 99.9678L220.221 98.1416C220.973 99.0492 221.759 99.68 222.578 100.034C223.408 100.388 224.227 100.565 225.035 100.565C226.009 100.565 226.85 100.383 227.559 100.018C228.267 99.6523 228.815 99.11 229.202 98.3906C229.601 97.6823 229.8 96.8079 229.8 95.7676V81.9883L230.082 78.0371ZM217.714 87.2178V86.8691C217.714 85.4967 217.874 84.2516 218.195 83.1338C218.527 82.0049 218.998 81.0365 219.606 80.2285C220.226 79.4206 220.973 78.8008 221.848 78.3691C222.722 77.9264 223.707 77.7051 224.803 77.7051C225.932 77.7051 226.917 77.9043 227.758 78.3027C228.61 78.6901 229.329 79.2601 229.916 80.0127C230.514 80.7542 230.984 81.6507 231.327 82.7021C231.67 83.7536 231.908 84.9434 232.041 86.2715V87.7988C231.919 89.1159 231.681 90.3001 231.327 91.3516C230.984 92.403 230.514 93.2995 229.916 94.041C229.329 94.7826 228.61 95.3525 227.758 95.751C226.906 96.1383 225.91 96.332 224.77 96.332C223.696 96.332 222.722 96.1051 221.848 95.6514C220.984 95.1976 220.243 94.5612 219.623 93.7422C219.003 92.9232 218.527 91.9603 218.195 90.8535C217.874 89.7357 217.714 88.5238 217.714 87.2178ZM220.785 86.8691V87.2178C220.785 88.1143 220.874 88.9554 221.051 89.7412C221.239 90.527 221.521 91.2188 221.897 91.8164C222.285 92.4141 222.777 92.8844 223.375 93.2275C223.973 93.5596 224.687 93.7256 225.517 93.7256C226.535 93.7256 227.376 93.5098 228.04 93.0781C228.704 92.6465 229.23 92.0765 229.617 91.3682C230.016 90.6598 230.326 89.8906 230.547 89.0605V85.0596C230.425 84.4508 230.237 83.8643 229.982 83.2998C229.739 82.7243 229.418 82.2152 229.02 81.7725C228.632 81.3187 228.151 80.959 227.575 80.6934C227 80.4277 226.325 80.2949 225.55 80.2949C224.709 80.2949 223.984 80.472 223.375 80.8262C222.777 81.1693 222.285 81.6452 221.897 82.2539C221.521 82.8516 221.239 83.5488 221.051 84.3457C220.874 85.1315 220.785 85.9727 220.785 86.8691ZM248.128 92.9287V83.6816C248.128 82.9733 247.984 82.359 247.696 81.8389C247.42 81.3076 246.999 80.8981 246.435 80.6104C245.87 80.3226 245.173 80.1787 244.343 80.1787C243.568 80.1787 242.887 80.3115 242.301 80.5771C241.725 80.8428 241.271 81.1914 240.939 81.623C240.618 82.0547 240.458 82.5195 240.458 83.0176H237.387C237.387 82.3757 237.553 81.7393 237.885 81.1084C238.217 80.4775 238.693 79.9076 239.312 79.3984C239.943 78.8783 240.696 78.4688 241.57 78.1699C242.456 77.86 243.441 77.7051 244.525 77.7051C245.831 77.7051 246.982 77.9264 247.979 78.3691C248.986 78.8118 249.771 79.4814 250.336 80.3779C250.911 81.2633 251.199 82.3757 251.199 83.7148V92.082C251.199 92.6797 251.249 93.3161 251.349 93.9912C251.459 94.6663 251.62 95.2474 251.83 95.7344V96H248.626C248.471 95.6458 248.349 95.1755 248.261 94.5889C248.172 93.9912 248.128 93.4378 248.128 92.9287ZM248.659 85.1094L248.692 87.2676H245.588C244.714 87.2676 243.933 87.3395 243.247 87.4834C242.561 87.6162 241.985 87.821 241.521 88.0977C241.056 88.3743 240.701 88.723 240.458 89.1436C240.215 89.5531 240.093 90.0345 240.093 90.5879C240.093 91.1523 240.22 91.667 240.475 92.1318C240.729 92.5967 241.111 92.9674 241.62 93.2441C242.14 93.5098 242.777 93.6426 243.529 93.6426C244.47 93.6426 245.3 93.4434 246.02 93.0449C246.739 92.6465 247.309 92.1595 247.729 91.584C248.161 91.0085 248.394 90.4495 248.427 89.9072L249.738 91.3848C249.661 91.8496 249.451 92.3643 249.107 92.9287C248.764 93.4932 248.305 94.0355 247.729 94.5557C247.165 95.0648 246.49 95.4909 245.704 95.834C244.929 96.166 244.055 96.332 243.081 96.332C241.864 96.332 240.796 96.0941 239.877 95.6182C238.969 95.1423 238.261 94.5059 237.752 93.709C237.254 92.901 237.005 91.999 237.005 91.0029C237.005 90.04 237.193 89.1934 237.569 88.4629C237.946 87.7214 238.488 87.1071 239.196 86.6201C239.905 86.1221 240.757 85.7458 241.753 85.4912C242.749 85.2367 243.861 85.1094 245.09 85.1094H248.659ZM259.102 81.8721V96H256.03V78.0371H258.936L259.102 81.8721ZM258.371 86.3379L257.093 86.2881C257.104 85.0596 257.286 83.9251 257.641 82.8848C257.995 81.8333 258.493 80.9202 259.135 80.1455C259.777 79.3708 260.54 78.7731 261.426 78.3525C262.322 77.9209 263.313 77.7051 264.397 77.7051C265.283 77.7051 266.08 77.8268 266.788 78.0703C267.496 78.3027 268.1 78.679 268.598 79.1992C269.107 79.7194 269.494 80.3945 269.76 81.2246C270.025 82.0436 270.158 83.0452 270.158 84.2295V96H267.07V84.1963C267.07 83.2555 266.932 82.5029 266.655 81.9385C266.379 81.363 265.975 80.9479 265.443 80.6934C264.912 80.4277 264.259 80.2949 263.484 80.2949C262.721 80.2949 262.023 80.4554 261.393 80.7764C260.773 81.0973 260.236 81.54 259.782 82.1045C259.34 82.6689 258.991 83.3164 258.736 84.0469C258.493 84.7663 258.371 85.5299 258.371 86.3379ZM294.579 92.5137V70.5H297.667V96H294.845L294.579 92.5137ZM282.493 87.2178V86.8691C282.493 85.4967 282.659 84.2516 282.991 83.1338C283.334 82.0049 283.816 81.0365 284.436 80.2285C285.066 79.4206 285.813 78.8008 286.677 78.3691C287.551 77.9264 288.525 77.7051 289.599 77.7051C290.728 77.7051 291.713 77.9043 292.554 78.3027C293.406 78.6901 294.125 79.2601 294.712 80.0127C295.31 80.7542 295.78 81.6507 296.123 82.7021C296.466 83.7536 296.704 84.9434 296.837 86.2715V87.7988C296.715 89.1159 296.477 90.3001 296.123 91.3516C295.78 92.403 295.31 93.2995 294.712 94.041C294.125 94.7826 293.406 95.3525 292.554 95.751C291.701 96.1383 290.705 96.332 289.565 96.332C288.514 96.332 287.551 96.1051 286.677 95.6514C285.813 95.1976 285.066 94.5612 284.436 93.7422C283.816 92.9232 283.334 91.9603 282.991 90.8535C282.659 89.7357 282.493 88.5238 282.493 87.2178ZM285.581 86.8691V87.2178C285.581 88.1143 285.67 88.9554 285.847 89.7412C286.035 90.527 286.323 91.2188 286.71 91.8164C287.097 92.4141 287.59 92.8844 288.188 93.2275C288.785 93.5596 289.499 93.7256 290.329 93.7256C291.347 93.7256 292.183 93.5098 292.836 93.0781C293.5 92.6465 294.031 92.0765 294.43 91.3682C294.828 90.6598 295.138 89.8906 295.359 89.0605V85.0596C295.227 84.4508 295.033 83.8643 294.778 83.2998C294.535 82.7243 294.214 82.2152 293.815 81.7725C293.428 81.3187 292.947 80.959 292.371 80.6934C291.807 80.4277 291.137 80.2949 290.362 80.2949C289.521 80.2949 288.796 80.472 288.188 80.8262C287.59 81.1693 287.097 81.6452 286.71 82.2539C286.323 82.8516 286.035 83.5488 285.847 84.3457C285.67 85.1315 285.581 85.9727 285.581 86.8691ZM301.635 87.2178V86.8359C301.635 85.541 301.823 84.3402 302.199 83.2334C302.576 82.1156 303.118 81.1471 303.826 80.3281C304.535 79.498 305.392 78.8561 306.399 78.4023C307.407 77.9375 308.535 77.7051 309.786 77.7051C311.048 77.7051 312.182 77.9375 313.189 78.4023C314.208 78.8561 315.071 79.498 315.779 80.3281C316.499 81.1471 317.047 82.1156 317.423 83.2334C317.799 84.3402 317.987 85.541 317.987 86.8359V87.2178C317.987 88.5127 317.799 89.7135 317.423 90.8203C317.047 91.9271 316.499 92.8955 315.779 93.7256C315.071 94.5446 314.213 95.1865 313.206 95.6514C312.21 96.1051 311.081 96.332 309.819 96.332C308.558 96.332 307.423 96.1051 306.416 95.6514C305.409 95.1865 304.546 94.5446 303.826 93.7256C303.118 92.8955 302.576 91.9271 302.199 90.8203C301.823 89.7135 301.635 88.5127 301.635 87.2178ZM304.706 86.8359V87.2178C304.706 88.1143 304.811 88.9609 305.021 89.7578C305.232 90.5436 305.547 91.2409 305.968 91.8496C306.399 92.4583 306.936 92.9398 307.578 93.2939C308.22 93.637 308.967 93.8086 309.819 93.8086C310.66 93.8086 311.396 93.637 312.027 93.2939C312.669 92.9398 313.201 92.4583 313.621 91.8496C314.042 91.2409 314.357 90.5436 314.567 89.7578C314.789 88.9609 314.899 88.1143 314.899 87.2178V86.8359C314.899 85.9505 314.789 85.1149 314.567 84.3291C314.357 83.5322 314.036 82.8294 313.604 82.2207C313.184 81.6009 312.653 81.1139 312.011 80.7598C311.38 80.4056 310.638 80.2285 309.786 80.2285C308.945 80.2285 308.203 80.4056 307.562 80.7598C306.931 81.1139 306.399 81.6009 305.968 82.2207C305.547 82.8294 305.232 83.5322 305.021 84.3291C304.811 85.1149 304.706 85.9505 304.706 86.8359ZM330.737 71.8281H338.739C340.554 71.8281 342.087 72.1048 343.338 72.6582C344.6 73.2116 345.557 74.0306 346.21 75.1152C346.874 76.1888 347.206 77.5114 347.206 79.083C347.206 80.1898 346.979 81.2025 346.525 82.1211C346.083 83.0286 345.441 83.8034 344.6 84.4453C343.77 85.0762 342.773 85.5465 341.611 85.8564L340.715 86.2051H333.194L333.161 83.5986H338.839C339.99 83.5986 340.947 83.3994 341.711 83.001C342.475 82.5915 343.05 82.0436 343.438 81.3574C343.825 80.6712 344.019 79.9131 344.019 79.083C344.019 78.1533 343.836 77.3398 343.471 76.6426C343.105 75.9453 342.53 75.4085 341.744 75.0322C340.969 74.6449 339.968 74.4512 338.739 74.4512H333.941V96H330.737V71.8281ZM344.865 96L338.988 85.043L342.325 85.0264L348.285 95.8008V96H344.865ZM361.815 92.9287V83.6816C361.815 82.9733 361.672 82.359 361.384 81.8389C361.107 81.3076 360.687 80.8981 360.122 80.6104C359.558 80.3226 358.86 80.1787 358.03 80.1787C357.256 80.1787 356.575 80.3115 355.988 80.5771C355.413 80.8428 354.959 81.1914 354.627 81.623C354.306 82.0547 354.146 82.5195 354.146 83.0176H351.074C351.074 82.3757 351.24 81.7393 351.572 81.1084C351.904 80.4775 352.38 79.9076 353 79.3984C353.631 78.8783 354.383 78.4688 355.258 78.1699C356.143 77.86 357.128 77.7051 358.213 77.7051C359.519 77.7051 360.67 77.9264 361.666 78.3691C362.673 78.8118 363.459 79.4814 364.023 80.3779C364.599 81.2633 364.887 82.3757 364.887 83.7148V92.082C364.887 92.6797 364.937 93.3161 365.036 93.9912C365.147 94.6663 365.307 95.2474 365.518 95.7344V96H362.313C362.159 95.6458 362.037 95.1755 361.948 94.5889C361.86 93.9912 361.815 93.4378 361.815 92.9287ZM362.347 85.1094L362.38 87.2676H359.275C358.401 87.2676 357.621 87.3395 356.935 87.4834C356.248 87.6162 355.673 87.821 355.208 88.0977C354.743 88.3743 354.389 88.723 354.146 89.1436C353.902 89.5531 353.78 90.0345 353.78 90.5879C353.78 91.1523 353.908 91.667 354.162 92.1318C354.417 92.5967 354.799 92.9674 355.308 93.2441C355.828 93.5098 356.464 93.6426 357.217 93.6426C358.158 93.6426 358.988 93.4434 359.707 93.0449C360.426 92.6465 360.996 92.1595 361.417 91.584C361.849 91.0085 362.081 90.4495 362.114 89.9072L363.426 91.3848C363.348 91.8496 363.138 92.3643 362.795 92.9287C362.452 93.4932 361.993 94.0355 361.417 94.5557C360.853 95.0648 360.177 95.4909 359.392 95.834C358.617 96.166 357.743 96.332 356.769 96.332C355.551 96.332 354.483 96.0941 353.564 95.6182C352.657 95.1423 351.949 94.5059 351.439 93.709C350.941 92.901 350.692 91.999 350.692 91.0029C350.692 90.04 350.881 89.1934 351.257 88.4629C351.633 87.7214 352.175 87.1071 352.884 86.6201C353.592 86.1221 354.444 85.7458 355.44 85.4912C356.437 85.2367 357.549 85.1094 358.777 85.1094H362.347ZM381.04 92.5137V70.5H384.128V96H381.306L381.04 92.5137ZM368.954 87.2178V86.8691C368.954 85.4967 369.12 84.2516 369.452 83.1338C369.795 82.0049 370.277 81.0365 370.896 80.2285C371.527 79.4206 372.274 78.8008 373.138 78.3691C374.012 77.9264 374.986 77.7051 376.06 77.7051C377.188 77.7051 378.174 77.9043 379.015 78.3027C379.867 78.6901 380.586 79.2601 381.173 80.0127C381.771 80.7542 382.241 81.6507 382.584 82.7021C382.927 83.7536 383.165 84.9434 383.298 86.2715V87.7988C383.176 89.1159 382.938 90.3001 382.584 91.3516C382.241 92.403 381.771 93.2995 381.173 94.041C380.586 94.7826 379.867 95.3525 379.015 95.751C378.162 96.1383 377.166 96.332 376.026 96.332C374.975 96.332 374.012 96.1051 373.138 95.6514C372.274 95.1976 371.527 94.5612 370.896 93.7422C370.277 92.9232 369.795 91.9603 369.452 90.8535C369.12 89.7357 368.954 88.5238 368.954 87.2178ZM372.042 86.8691V87.2178C372.042 88.1143 372.131 88.9554 372.308 89.7412C372.496 90.527 372.784 91.2188 373.171 91.8164C373.558 92.4141 374.051 92.8844 374.648 93.2275C375.246 93.5596 375.96 93.7256 376.79 93.7256C377.808 93.7256 378.644 93.5098 379.297 93.0781C379.961 92.6465 380.492 92.0765 380.891 91.3682C381.289 90.6598 381.599 89.8906 381.82 89.0605V85.0596C381.688 84.4508 381.494 83.8643 381.239 83.2998C380.996 82.7243 380.675 82.2152 380.276 81.7725C379.889 81.3187 379.408 80.959 378.832 80.6934C378.268 80.4277 377.598 80.2949 376.823 80.2949C375.982 80.2949 375.257 80.472 374.648 80.8262C374.051 81.1693 373.558 81.6452 373.171 82.2539C372.784 82.8516 372.496 83.5488 372.308 84.3457C372.131 85.1315 372.042 85.9727 372.042 86.8691ZM392.246 78.0371V96H389.158V78.0371H392.246ZM388.926 73.2725C388.926 72.7744 389.075 72.3538 389.374 72.0107C389.684 71.6676 390.138 71.4961 390.735 71.4961C391.322 71.4961 391.77 71.6676 392.08 72.0107C392.401 72.3538 392.562 72.7744 392.562 73.2725C392.562 73.7484 392.401 74.1579 392.08 74.501C391.77 74.833 391.322 74.999 390.735 74.999C390.138 74.999 389.684 74.833 389.374 74.501C389.075 74.1579 388.926 73.7484 388.926 73.2725ZM396.363 87.2178V86.8359C396.363 85.541 396.551 84.3402 396.928 83.2334C397.304 82.1156 397.846 81.1471 398.555 80.3281C399.263 79.498 400.121 78.8561 401.128 78.4023C402.135 77.9375 403.264 77.7051 404.515 77.7051C405.776 77.7051 406.911 77.9375 407.918 78.4023C408.936 78.8561 409.799 79.498 410.508 80.3281C411.227 81.1471 411.775 82.1156 412.151 83.2334C412.528 84.3402 412.716 85.541 412.716 86.8359V87.2178C412.716 88.5127 412.528 89.7135 412.151 90.8203C411.775 91.9271 411.227 92.8955 410.508 93.7256C409.799 94.5446 408.942 95.1865 407.935 95.6514C406.938 96.1051 405.81 96.332 404.548 96.332C403.286 96.332 402.152 96.1051 401.145 95.6514C400.137 95.1865 399.274 94.5446 398.555 93.7256C397.846 92.8955 397.304 91.9271 396.928 90.8203C396.551 89.7135 396.363 88.5127 396.363 87.2178ZM399.435 86.8359V87.2178C399.435 88.1143 399.54 88.9609 399.75 89.7578C399.96 90.5436 400.276 91.2409 400.696 91.8496C401.128 92.4583 401.665 92.9398 402.307 93.2939C402.949 93.637 403.696 93.8086 404.548 93.8086C405.389 93.8086 406.125 93.637 406.756 93.2939C407.398 92.9398 407.929 92.4583 408.35 91.8496C408.77 91.2409 409.086 90.5436 409.296 89.7578C409.517 88.9609 409.628 88.1143 409.628 87.2178V86.8359C409.628 85.9505 409.517 85.1149 409.296 84.3291C409.086 83.5322 408.765 82.8294 408.333 82.2207C407.912 81.6009 407.381 81.1139 406.739 80.7598C406.108 80.4056 405.367 80.2285 404.515 80.2285C403.674 80.2285 402.932 80.4056 402.29 80.7598C401.659 81.1139 401.128 81.6009 400.696 82.2207C400.276 82.8294 399.96 83.5322 399.75 84.3291C399.54 85.1149 399.435 85.9505 399.435 86.8359ZM427.89 92.5137V70.5H430.978V96H428.155L427.89 92.5137ZM415.804 87.2178V86.8691C415.804 85.4967 415.97 84.2516 416.302 83.1338C416.645 82.0049 417.126 81.0365 417.746 80.2285C418.377 79.4206 419.124 78.8008 419.987 78.3691C420.862 77.9264 421.836 77.7051 422.909 77.7051C424.038 77.7051 425.023 77.9043 425.864 78.3027C426.716 78.6901 427.436 79.2601 428.022 80.0127C428.62 80.7542 429.09 81.6507 429.434 82.7021C429.777 83.7536 430.015 84.9434 430.147 86.2715V87.7988C430.026 89.1159 429.788 90.3001 429.434 91.3516C429.09 92.403 428.62 93.2995 428.022 94.041C427.436 94.7826 426.716 95.3525 425.864 95.751C425.012 96.1383 424.016 96.332 422.876 96.332C421.825 96.332 420.862 96.1051 419.987 95.6514C419.124 95.1976 418.377 94.5612 417.746 93.7422C417.126 92.9232 416.645 91.9603 416.302 90.8535C415.97 89.7357 415.804 88.5238 415.804 87.2178ZM418.892 86.8691V87.2178C418.892 88.1143 418.98 88.9554 419.157 89.7412C419.345 90.527 419.633 91.2188 420.021 91.8164C420.408 92.4141 420.9 92.8844 421.498 93.2275C422.096 93.5596 422.81 93.7256 423.64 93.7256C424.658 93.7256 425.493 93.5098 426.146 93.0781C426.811 92.6465 427.342 92.0765 427.74 91.3682C428.139 90.6598 428.449 89.8906 428.67 89.0605V85.0596C428.537 84.4508 428.343 83.8643 428.089 83.2998C427.845 82.7243 427.524 82.2152 427.126 81.7725C426.739 81.3187 426.257 80.959 425.682 80.6934C425.117 80.4277 424.448 80.2949 423.673 80.2949C422.832 80.2949 422.107 80.472 421.498 80.8262C420.9 81.1693 420.408 81.6452 420.021 82.2539C419.633 82.8516 419.345 83.5488 419.157 84.3457C418.98 85.1315 418.892 85.9727 418.892 86.8691ZM439.096 78.0371V96H436.008V78.0371H439.096ZM435.775 73.2725C435.775 72.7744 435.925 72.3538 436.224 72.0107C436.534 71.6676 436.987 71.4961 437.585 71.4961C438.172 71.4961 438.62 71.6676 438.93 72.0107C439.251 72.3538 439.411 72.7744 439.411 73.2725C439.411 73.7484 439.251 74.1579 438.93 74.501C438.62 74.833 438.172 74.999 437.585 74.999C436.987 74.999 436.534 74.833 436.224 74.501C435.925 74.1579 435.775 73.7484 435.775 73.2725ZM448.608 96H445.537V76.1445C445.537 74.8496 445.77 73.7594 446.234 72.874C446.71 71.9775 447.391 71.3024 448.276 70.8486C449.162 70.3838 450.213 70.1514 451.431 70.1514C451.785 70.1514 452.139 70.1735 452.493 70.2178C452.858 70.262 453.213 70.3285 453.556 70.417L453.39 72.9238C453.157 72.8685 452.892 72.8298 452.593 72.8076C452.305 72.7855 452.017 72.7744 451.729 72.7744C451.076 72.7744 450.512 72.9072 450.036 73.1729C449.571 73.4274 449.217 73.8037 448.974 74.3018C448.73 74.7998 448.608 75.4141 448.608 76.1445V96ZM452.427 78.0371V80.3945H442.698V78.0371H452.427ZM466.837 91.8496V78.0371H469.925V96H466.986L466.837 91.8496ZM467.418 88.0645L468.696 88.0312C468.696 89.2266 468.569 90.3333 468.314 91.3516C468.071 92.3587 467.673 93.2331 467.119 93.9746C466.566 94.7161 465.841 95.2972 464.944 95.7178C464.048 96.1273 462.958 96.332 461.674 96.332C460.799 96.332 459.997 96.2048 459.267 95.9502C458.547 95.6956 457.927 95.3027 457.407 94.7715C456.887 94.2402 456.483 93.5485 456.195 92.6963C455.919 91.8441 455.78 90.8203 455.78 89.625V78.0371H458.852V89.6582C458.852 90.4661 458.94 91.1357 459.117 91.667C459.305 92.1872 459.554 92.6022 459.864 92.9121C460.185 93.2109 460.539 93.4212 460.927 93.543C461.325 93.6647 461.735 93.7256 462.155 93.7256C463.461 93.7256 464.496 93.4766 465.26 92.9785C466.023 92.4694 466.571 91.7887 466.903 90.9365C467.246 90.0732 467.418 89.1159 467.418 88.0645ZM485.065 91.2354C485.065 90.7926 484.966 90.3831 484.767 90.0068C484.578 89.6195 484.186 89.2708 483.588 88.9609C483.001 88.64 482.116 88.3633 480.932 88.1309C479.936 87.9206 479.034 87.6715 478.226 87.3838C477.429 87.096 476.748 86.7474 476.184 86.3379C475.63 85.9284 475.204 85.4469 474.905 84.8936C474.606 84.3402 474.457 83.6927 474.457 82.9512C474.457 82.2428 474.612 81.5732 474.922 80.9424C475.243 80.3115 475.691 79.7526 476.267 79.2656C476.853 78.7786 477.556 78.3968 478.375 78.1201C479.194 77.8434 480.107 77.7051 481.114 77.7051C482.553 77.7051 483.782 77.9596 484.8 78.4688C485.818 78.9779 486.598 79.6585 487.141 80.5107C487.683 81.3519 487.954 82.2871 487.954 83.3164H484.883C484.883 82.8184 484.733 82.3369 484.435 81.8721C484.147 81.3962 483.721 81.0033 483.156 80.6934C482.603 80.3835 481.922 80.2285 481.114 80.2285C480.262 80.2285 479.57 80.3613 479.039 80.627C478.519 80.8815 478.137 81.208 477.894 81.6064C477.661 82.0049 477.545 82.4255 477.545 82.8682C477.545 83.2002 477.6 83.499 477.711 83.7646C477.833 84.0192 478.043 84.2572 478.342 84.4785C478.641 84.6888 479.061 84.888 479.604 85.0762C480.146 85.2643 480.838 85.4525 481.679 85.6406C483.151 85.9727 484.363 86.3711 485.314 86.8359C486.266 87.3008 486.975 87.8708 487.439 88.5459C487.904 89.221 488.137 90.04 488.137 91.0029C488.137 91.7887 487.971 92.5081 487.639 93.1611C487.318 93.8141 486.847 94.3786 486.228 94.8545C485.619 95.3193 484.888 95.6846 484.036 95.9502C483.195 96.2048 482.249 96.332 481.197 96.332C479.615 96.332 478.275 96.0498 477.18 95.4854C476.084 94.9209 475.254 94.1904 474.689 93.2939C474.125 92.3975 473.843 91.4512 473.843 90.4551H476.931C476.975 91.2962 477.218 91.9658 477.661 92.4639C478.104 92.9508 478.646 93.2995 479.288 93.5098C479.93 93.709 480.566 93.8086 481.197 93.8086C482.038 93.8086 482.741 93.6979 483.306 93.4766C483.881 93.2552 484.318 92.9508 484.617 92.5635C484.916 92.1761 485.065 91.7334 485.065 91.2354ZM491.357 87.2178V86.8359C491.357 85.541 491.546 84.3402 491.922 83.2334C492.298 82.1156 492.84 81.1471 493.549 80.3281C494.257 79.498 495.115 78.8561 496.122 78.4023C497.129 77.9375 498.258 77.7051 499.509 77.7051C500.771 77.7051 501.905 77.9375 502.912 78.4023C503.93 78.8561 504.794 79.498 505.502 80.3281C506.221 81.1471 506.769 82.1156 507.146 83.2334C507.522 84.3402 507.71 85.541 507.71 86.8359V87.2178C507.71 88.5127 507.522 89.7135 507.146 90.8203C506.769 91.9271 506.221 92.8955 505.502 93.7256C504.794 94.5446 503.936 95.1865 502.929 95.6514C501.933 96.1051 500.804 96.332 499.542 96.332C498.28 96.332 497.146 96.1051 496.139 95.6514C495.132 95.1865 494.268 94.5446 493.549 93.7256C492.84 92.8955 492.298 91.9271 491.922 90.8203C491.546 89.7135 491.357 88.5127 491.357 87.2178ZM494.429 86.8359V87.2178C494.429 88.1143 494.534 88.9609 494.744 89.7578C494.954 90.5436 495.27 91.2409 495.69 91.8496C496.122 92.4583 496.659 92.9398 497.301 93.2939C497.943 93.637 498.69 93.8086 499.542 93.8086C500.383 93.8086 501.119 93.637 501.75 93.2939C502.392 92.9398 502.923 92.4583 503.344 91.8496C503.764 91.2409 504.08 90.5436 504.29 89.7578C504.511 88.9609 504.622 88.1143 504.622 87.2178V86.8359C504.622 85.9505 504.511 85.1149 504.29 84.3291C504.08 83.5322 503.759 82.8294 503.327 82.2207C502.907 81.6009 502.375 81.1139 501.733 80.7598C501.103 80.4056 500.361 80.2285 499.509 80.2285C498.668 80.2285 497.926 80.4056 497.284 80.7598C496.653 81.1139 496.122 81.6009 495.69 82.2207C495.27 82.8294 494.954 83.5322 494.744 84.3291C494.534 85.1149 494.429 85.9505 494.429 86.8359ZM514.633 80.8594V96H511.562V78.0371H514.55L514.633 80.8594ZM520.244 77.9375L520.228 80.793C519.973 80.7376 519.729 80.7044 519.497 80.6934C519.276 80.6712 519.021 80.6602 518.733 80.6602C518.025 80.6602 517.4 80.7708 516.857 80.9922C516.315 81.2135 515.856 81.5234 515.479 81.9219C515.103 82.3203 514.804 82.7962 514.583 83.3496C514.373 83.8919 514.234 84.4896 514.168 85.1426L513.305 85.6406C513.305 84.556 513.41 83.5378 513.62 82.5859C513.841 81.6341 514.179 80.793 514.633 80.0625C515.087 79.321 515.662 78.7454 516.359 78.3359C517.068 77.9154 517.909 77.7051 518.883 77.7051C519.104 77.7051 519.359 77.7327 519.646 77.7881C519.934 77.8324 520.133 77.8822 520.244 77.9375Z" fill="white"/>
</svg>
