<svg width="70" height="62" viewBox="0 0 70 62" fill="none" xmlns="http://www.w3.org/2000/svg">
<path d="M35.0009 6.13892C34.073 6.13892 33.1831 6.46166 32.5269 7.03613C31.8708 7.6106 31.5022 8.38975 31.5022 9.20217C31.5022 14.3852 24.3439 16.9828 20.156 13.3161C19.8333 13.0235 19.4472 12.7902 19.0204 12.6296C18.5935 12.4691 18.1344 12.3846 17.6699 12.3811C17.2053 12.3775 16.7446 12.455 16.3146 12.609C15.8847 12.7631 15.494 12.9905 15.1655 13.2781C14.837 13.5658 14.5773 13.9078 14.4013 14.2842C14.2254 14.6607 14.1369 15.0641 14.1409 15.4708C14.145 15.8775 14.2415 16.2795 14.4249 16.6532C14.6082 17.027 14.8748 17.365 15.2089 17.6475C19.3968 21.3143 16.4334 27.5817 10.5102 27.5817C9.58229 27.5817 8.69239 27.9044 8.03627 28.4789C7.38014 29.0533 7.01153 29.8325 7.01153 30.6449C7.01153 31.4573 7.38014 32.2365 8.03627 32.8109C8.69239 33.3854 9.58229 33.7082 10.5102 33.7082C16.4299 33.7082 19.3968 39.9756 15.2089 43.6423C14.5716 44.22 14.219 44.9938 14.2269 45.797C14.2349 46.6001 14.6028 47.3684 15.2515 47.9364C15.9002 48.5043 16.7777 48.8265 17.6951 48.8335C18.6124 48.8404 19.4962 48.5317 20.156 47.9737C24.3439 44.307 31.5022 46.9016 31.5022 52.0876C31.5022 52.9001 31.8708 53.6792 32.5269 54.2537C33.1831 54.8282 34.073 55.1509 35.0009 55.1509C35.9288 55.1509 36.8187 54.8282 37.4748 54.2537C38.1309 53.6792 38.4995 52.9001 38.4995 52.0876C38.4995 46.9046 45.6578 44.307 49.8457 47.9737C50.1685 48.2663 50.5545 48.4996 50.9814 48.6602C51.4082 48.8207 51.8673 48.9052 52.3319 48.9088C52.7964 48.9123 53.2571 48.8348 53.6871 48.6808C54.1171 48.5267 54.5077 48.2993 54.8362 48.0117C55.1647 47.724 55.4245 47.382 55.6004 47.0056C55.7763 46.6291 55.8648 46.2257 55.8608 45.819C55.8568 45.4123 55.7603 45.0103 55.5769 44.6366C55.3935 44.2629 55.127 43.9248 54.7928 43.6423C50.6049 39.9756 53.5683 33.7082 59.4916 33.7082C60.4195 33.7082 61.3094 33.3854 61.9655 32.8109C62.6216 32.2365 62.9902 31.4573 62.9902 30.6449C62.9902 29.8325 62.6216 29.0533 61.9655 28.4789C61.3094 27.9044 60.4195 27.5817 59.4916 27.5817C53.5718 27.5817 50.6049 21.3143 54.7928 17.6475C55.4301 17.0698 55.7828 16.296 55.7748 15.4929C55.7668 14.6897 55.3989 13.9214 54.7502 13.3534C54.1015 12.7855 53.224 12.4633 52.3067 12.4563C51.3894 12.4494 50.5056 12.7581 49.8457 13.3161C45.6578 16.9828 38.4995 14.3882 38.4995 9.20217C38.4995 8.38975 38.1309 7.6106 37.4748 7.03613C36.8187 6.46166 35.9288 6.13892 35.0009 6.13892ZM24.5329 8.51907C24.7263 6.20408 25.9132 4.03896 27.855 2.45867C29.7969 0.878378 32.3498 0 35.0009 0C37.652 0 40.2049 0.878378 42.1467 2.45867C44.0885 4.03896 45.2754 6.20408 45.4689 8.51907C47.4765 7.00944 50.0612 6.21951 52.7057 6.30743C55.3501 6.39534 57.8591 7.35462 59.7301 8.99319C61.6011 10.6318 62.6962 12.8287 62.796 15.144C62.8958 17.4594 61.9929 19.7223 60.2683 21.4797C62.9123 21.6487 65.3854 22.6875 67.1907 24.3874C68.9959 26.0873 69.9996 28.3223 70 30.6435C70.0004 32.9647 68.9976 35.2 67.193 36.9004C65.3884 38.6008 62.9158 39.6404 60.2718 39.8101C61.996 41.5679 62.8982 43.831 62.7978 46.1463C62.6973 48.4616 61.6017 50.6583 59.7302 52.2965C57.8588 53.9347 55.3496 54.8934 52.7051 54.9808C50.0606 55.0682 47.476 54.2777 45.4689 52.7677C45.2754 55.0827 44.0885 57.2478 42.1467 58.8281C40.2049 60.4084 37.652 61.2867 35.0009 61.2867C32.3498 61.2867 29.7969 60.4084 27.855 58.8281C25.9132 57.2478 24.7263 55.0827 24.5329 52.7677C22.5257 54.2777 19.9411 55.0682 17.2966 54.9808C14.6522 54.8934 12.143 53.9347 10.2715 52.2965C8.40003 50.6583 7.3044 48.4616 7.20398 46.1463C7.10357 43.831 8.00579 41.5679 9.72999 39.8101C7.08595 39.6407 4.61307 38.6016 2.80815 36.9014C1.00323 35.2013 0 32.9661 0 30.6449C0 28.3237 1.00323 26.0885 2.80815 24.3884C4.61307 22.6882 7.08595 21.6491 9.72999 21.4797C8.00053 19.7226 7.09391 17.4579 7.19204 15.14C7.29016 12.8221 8.38577 10.6224 10.259 8.98227C12.1323 7.34213 14.6447 6.38288 17.2921 6.29696C19.9395 6.21105 22.5261 7.00484 24.5329 8.51907Z" fill="white"/>
<path d="M35.1146 24.6656C33.2588 24.6656 31.479 25.3111 30.1668 26.46C28.8545 27.609 28.1173 29.1673 28.1173 30.7921C28.1173 32.417 28.8545 33.9753 30.1668 35.1242C31.479 36.2731 33.2588 36.9186 35.1146 36.9186C36.9704 36.9186 38.7502 36.2731 40.0625 35.1242C41.3748 33.9753 42.112 32.417 42.112 30.7921C42.112 29.1673 41.3748 27.609 40.0625 26.46C38.7502 25.3111 36.9704 24.6656 35.1146 24.6656ZM25.2204 22.1292C26.5114 20.959 28.0556 20.0255 29.763 19.3833C31.4704 18.7412 33.3068 18.4032 35.165 18.389C37.0232 18.3749 38.866 18.6849 40.5859 19.301C42.3058 19.9171 43.8683 20.8269 45.1823 21.9774C46.4963 23.1278 47.5355 24.4959 48.2391 26.0018C48.9428 27.5076 49.2969 29.1211 49.2807 30.748C49.2646 32.375 48.8785 33.9828 48.1451 35.4777C47.4116 36.9726 46.3455 38.3247 45.0089 39.455C42.3694 41.687 38.8344 42.922 35.165 42.8941C31.4956 42.8662 27.9856 41.5775 25.3909 39.3057C22.7962 37.0339 21.3243 33.9607 21.2925 30.748C21.2606 27.5353 22.6712 24.4402 25.2204 22.1292Z" fill="white"/>
</svg>
